MasterSet_Kanji-w0.00.ufo
<glyph name="c13393" format="1">
	<advance width="1000"/>
	<outline>
		<contour>
			<point x="529" y="746" type="line"/>
			<point x="529" y="716" type="line"/>
			<point x="849" y="716" type="line"/>
			<point x="849" y="746" type="line"/>
		</contour>
		<contour>
			<point x="452" y="251" type="line"/>
			<point x="452" y="221" type="line"/>
			<point x="894" y="221" type="line"/>
			<point x="894" y="251" type="line"/>
		</contour>
		<contour>
			<point x="474" y="400" type="line"/>
			<point x="474" y="370" type="line"/>
			<point x="848" y="370" type="line"/>
			<point x="848" y="400" type="line"/>
		</contour>
		<contour>
			<point x="334" y="-20" type="line"/>
			<point x="334" y="-50" type="line"/>
			<point x="960" y="-50" type="line"/>
			<point x="960" y="-20" type="line"/>
		</contour>
		<contour>
			<point x="429" y="124" type="line"/>
			<point x="429" y="94" type="line"/>
			<point x="889" y="94" type="line"/>
			<point x="889" y="124" type="line"/>
		</contour>
		<contour>
			<point x="836" y="746" type="line"/>
			<point x="836" y="739" type="line"/>
			<point x="750" y="568"/>
			<point x="528" y="450"/>
			<point x="340" y="405" type="curve"/>
			<point x="347" y="398"/>
			<point x="355" y="387"/>
			<point x="358" y="379" type="curve"/>
			<point x="550" y="430"/>
			<point x="774" y="549"/>
			<point x="868" y="736" type="curve"/>
			<point x="849" y="748" type="line"/>
			<point x="843" y="746" type="line"/>
		</contour>
		<contour>
			<point x="520" y="714" type="curve"/>
			<point x="495" y="703" type="line"/>
			<point x="578" y="549"/>
			<point x="755" y="433"/>
			<point x="956" y="389" type="curve"/>
			<point x="960" y="397"/>
			<point x="969" y="409"/>
			<point x="976" y="415" type="curve"/>
			<point x="776" y="454"/>
			<point x="599" y="567"/>
		</contour>
		<contour>
			<point x="579" y="841" type="line"/>
			<point x="539" y="759"/>
			<point x="459" y="655"/>
			<point x="347" y="580" type="curve"/>
			<point x="355" y="576"/>
			<point x="365" y="567"/>
			<point x="371" y="560" type="curve"/>
			<point x="486" y="640"/>
			<point x="566" y="746"/>
			<point x="613" y="836" type="curve"/>
		</contour>
		<contour>
			<point x="484" y="343" type="line"/>
			<point x="457" y="270"/>
			<point x="414" y="199"/>
			<point x="363" y="149" type="curve"/>
			<point x="371" y="144"/>
			<point x="384" y="135"/>
			<point x="389" y="130" type="curve"/>
			<point x="438" y="182"/>
			<point x="485" y="259"/>
			<point x="514" y="336" type="curve"/>
		</contour>
		<contour>
			<point x="638" y="335" type="line"/>
			<point x="638" y="-39" type="line"/>
			<point x="668" y="-39" type="line"/>
			<point x="668" y="335" type="line"/>
		</contour>
		<contour>
			<point x="82" y="795" type="line"/>
			<point x="82" y="-80" type="line"/>
			<point x="112" y="-80" type="line"/>
			<point x="112" y="765" type="line"/>
			<point x="321" y="765" type="line"/>
			<point x="321" y="795" type="line"/>
		</contour>
		<contour>
			<point x="313" y="795" type="line"/>
			<point x="313" y="788" type="line"/>
			<point x="285" y="713"/>
			<point x="242" y="611"/>
			<point x="196" y="516" type="curve"/>
			<point x="285" y="425"/>
			<point x="309" y="351"/>
			<point x="309" y="288" type="curve"/>
			<point x="309" y="255"/>
			<point x="303" y="220"/>
			<point x="284" y="207" type="curve"/>
			<point x="274" y="201"/>
			<point x="262" y="198"/>
			<point x="248" y="197" type="curve"/>
			<point x="228" y="195"/>
			<point x="202" y="196"/>
			<point x="173" y="198" type="curve"/>
			<point x="180" y="189"/>
			<point x="184" y="176"/>
			<point x="185" y="168" type="curve"/>
			<point x="207" y="166"/>
			<point x="234" y="166"/>
			<point x="256" y="168" type="curve"/>
			<point x="275" y="170"/>
			<point x="292" y="175"/>
			<point x="304" y="184" type="curve"/>
			<point x="329" y="201"/>
			<point x="339" y="244"/>
			<point x="339" y="288" type="curve"/>
			<point x="339" y="355"/>
			<point x="317" y="431"/>
			<point x="231" y="520" type="curve"/>
			<point x="270" y="604"/>
			<point x="312" y="702"/>
			<point x="345" y="783" type="curve"/>
			<point x="325" y="797" type="line"/>
			<point x="319" y="795" type="line"/>
		</contour>
	</outline>
</glyph>
<glyph name="c13887" format="1">
	<advance width="1000"/>
	<outline>
		<contour>
			<point x="318" y="394" type="line"/>
			<point x="318" y="364" type="line"/>
			<point x="908" y="364" type="line"/>
			<point x="908" y="394" type="line"/>
		</contour>
		<contour>
			<point x="275" y="238" type="line"/>
			<point x="275" y="208" type="line"/>
			<point x="951" y="208" type="line"/>
			<point x="951" y="238" type="line"/>
		</contour>
		<contour>
			<point x="473" y="488" type="line"/>
			<point x="473" y="222" type="line"/>
			<point x="503" y="222" type="line"/>
			<point x="503" y="488" type="line"/>
		</contour>
		<contour>
			<point x="719" y="488" type="line"/>
			<point x="719" y="222" type="line"/>
			<point x="749" y="222" type="line"/>
			<point x="749" y="488" type="line"/>
		</contour>
		<contour>
			<point x="310" y="791" type="line"/>
			<point x="310" y="561" type="line"/>
			<point x="310" y="516"/>
			<point x="326" y="509"/>
			<point x="385" y="509" type="curve"/>
			<point x="397" y="509"/>
			<point x="522" y="509"/>
			<point x="534" y="509" type="curve"/>
			<point x="578" y="509"/>
			<point x="589" y="525"/>
			<point x="592" y="587" type="curve"/>
			<point x="583" y="590"/>
			<point x="572" y="593"/>
			<point x="564" y="599" type="curve"/>
			<point x="562" y="544"/>
			<point x="557" y="537"/>
			<point x="530" y="537" type="curve"/>
			<point x="506" y="537"/>
			<point x="402" y="537"/>
			<point x="385" y="537" type="curve"/>
			<point x="346" y="537"/>
			<point x="340" y="541"/>
			<point x="340" y="561" type="curve"/>
			<point x="340" y="791" type="line"/>
		</contour>
		<contour>
			<point x="648" y="791" type="line"/>
			<point x="648" y="562" type="line"/>
			<point x="648" y="516"/>
			<point x="665" y="509"/>
			<point x="727" y="509" type="curve"/>
			<point x="740" y="509"/>
			<point x="875" y="509"/>
			<point x="888" y="509" type="curve"/>
			<point x="935" y="509"/>
			<point x="946" y="525"/>
			<point x="949" y="593" type="curve"/>
			<point x="940" y="595"/>
			<point x="929" y="599"/>
			<point x="921" y="604" type="curve"/>
			<point x="918" y="545"/>
			<point x="913" y="537"/>
			<point x="884" y="537" type="curve"/>
			<point x="858" y="537"/>
			<point x="745" y="537"/>
			<point x="726" y="537" type="curve"/>
			<point x="685" y="537"/>
			<point x="678" y="542"/>
			<point x="678" y="562" type="curve"/>
			<point x="678" y="791" type="line"/>
		</contour>
		<contour>
			<point x="676" y="170" type="line"/>
			<point x="766" y="128"/>
			<point x="856" y="74"/>
			<point x="909" y="28" type="curve"/>
			<point x="934" y="49" type="line"/>
			<point x="879" y="95"/>
			<point x="786" y="148"/>
			<point x="696" y="189" type="curve"/>
		</contour>
		<contour>
			<point x="521" y="189" type="line"/>
			<point x="467" y="136"/>
			<point x="382" y="85"/>
			<point x="306" y="49" type="curve"/>
			<point x="314" y="44"/>
			<point x="326" y="32"/>
			<point x="331" y="27" type="curve"/>
			<point x="404" y="65"/>
			<point x="491" y="123"/>
			<point x="550" y="179" type="curve"/>
		</contour>
		<contour>
			<point x="212" y="354" type="line"/>
			<point x="40" y="354" type="line"/>
			<point x="40" y="324" type="line"/>
			<point x="182" y="324" type="line"/>
			<point x="182" y="81" type="line"/>
			<point x="212" y="81" type="line"/>
		</contour>
		<contour>
			<point x="212" y="97" type="curve"/>
			<point x="185" y="97" type="line"/>
			<point x="136" y="46"/>
			<point x="80" y="-7"/>
			<point x="35" y="-45" type="curve"/>
			<point x="56" y="-73" type="line"/>
			<point x="104" y="-28"/>
			<point x="153" y="20"/>
			<point x="199" y="68" type="curve"/>
			<point x="265" y="-13"/>
			<point x="367" y="-55"/>
			<point x="512" y="-60" type="curve"/>
			<point x="620" y="-63"/>
			<point x="847" y="-61"/>
			<point x="951" y="-58" type="curve"/>
			<point x="953" y="-48"/>
			<point x="958" y="-34"/>
			<point x="963" y="-27" type="curve"/>
			<point x="855" y="-32"/>
			<point x="617" y="-34"/>
			<point x="510" y="-31" type="curve"/>
			<point x="376" y="-26"/>
			<point x="269" y="14"/>
		</contour>
		<contour>
			<point x="82" y="802" type="line"/>
			<point x="145" y="770"/>
			<point x="215" y="720"/>
			<point x="248" y="680" type="curve"/>
			<point x="269" y="702" type="line"/>
			<point x="236" y="742"/>
			<point x="165" y="791"/>
			<point x="102" y="822" type="curve"/>
		</contour>
		<contour>
			<point x="48" y="593" type="line"/>
			<point x="114" y="562"/>
			<point x="188" y="512"/>
			<point x="223" y="473" type="curve"/>
			<point x="243" y="497" type="line"/>
			<point x="208" y="536"/>
			<point x="133" y="585"/>
			<point x="67" y="614" type="curve"/>
		</contour>
		<contour>
			<point x="324" y="791" type="line"/>
			<point x="324" y="761" type="line"/>
			<point x="541" y="761" type="line"/>
			<point x="541" y="670" type="line"/>
			<point x="324" y="670" type="line"/>
			<point x="324" y="640" type="line"/>
			<point x="571" y="640" type="line"/>
			<point x="571" y="791" type="line"/>
		</contour>
		<contour>
			<point x="662" y="791" type="line"/>
			<point x="662" y="761" type="line"/>
			<point x="882" y="761" type="line"/>
			<point x="882" y="670" type="line"/>
			<point x="662" y="670" type="line"/>
			<point x="662" y="640" type="line"/>
			<point x="912" y="640" type="line"/>
			<point x="912" y="791" type="line"/>
		</contour>
	</outline>
</glyph>
<glyph name="c14066" format="1">
	<advance width="1000"/>
	<outline>
		<contour>
			<point x="692" y="746" type="line"/>
			<point x="692" y="-80" type="line"/>
			<point x="722" y="-80" type="line"/>
			<point x="722" y="716" type="line"/>
			<point x="917" y="716" type="line"/>
			<point x="917" y="746" type="line"/>
		</contour>
		<contour>
			<point x="908" y="746" type="line"/>
			<point x="908" y="172" type="line"/>
			<point x="908" y="159"/>
			<point x="903" y="155"/>
			<point x="890" y="154" type="curve"/>
			<point x="877" y="154"/>
			<point x="832" y="153"/>
			<point x="776" y="155" type="curve"/>
			<point x="781" y="146"/>
			<point x="786" y="134"/>
			<point x="789" y="127" type="curve"/>
			<point x="856" y="126"/>
			<point x="893" y="126"/>
			<point x="912" y="132" type="curve"/>
			<point x="931" y="138"/>
			<point x="938" y="148"/>
			<point x="938" y="172" type="curve"/>
			<point x="938" y="746" type="line"/>
		</contour>
		<contour>
			<point x="51" y="612" type="line"/>
			<point x="51" y="582" type="line"/>
			<point x="367" y="582" type="line"/>
			<point x="367" y="612" type="line"/>
		</contour>
		<contour>
			<point x="447" y="675" type="line"/>
			<point x="447" y="645" type="line"/>
			<point x="628" y="645" type="line"/>
			<point x="628" y="675" type="line"/>
		</contour>
		<contour>
			<point x="209" y="840" type="line"/>
			<point x="209" y="-78" type="line"/>
			<point x="239" y="-78" type="line"/>
			<point x="239" y="840" type="line"/>
		</contour>
		<contour>
			<point x="203" y="602" type="line"/>
			<point x="172" y="442"/>
			<point x="98" y="249"/>
			<point x="30" y="154" type="curve"/>
			<point x="37" y="149"/>
			<point x="47" y="138"/>
			<point x="53" y="130" type="curve"/>
			<point x="123" y="231"/>
			<point x="197" y="434"/>
			<point x="230" y="594" type="curve"/>
		</contour>
		<contour>
			<point x="233" y="590" type="curve"/>
			<point x="213" y="574" type="line"/>
			<point x="233" y="547"/>
			<point x="294" y="444"/>
			<point x="311" y="408" type="curve"/>
			<point x="334" y="440" type="line"/>
			<point x="319" y="464"/>
			<point x="251" y="567"/>
		</contour>
		<contour>
			<point x="457" y="824" type="line"/>
			<point x="437" y="669"/>
			<point x="396" y="468"/>
			<point x="312" y="339" type="curve"/>
			<point x="318" y="333"/>
			<point x="328" y="323"/>
			<point x="333" y="317" type="curve"/>
			<point x="421" y="451"/>
			<point x="465" y="657"/>
			<point x="489" y="819" type="curve"/>
		</contour>
		<contour>
			<point x="617" y="675" type="line"/>
			<point x="617" y="665" type="line"/>
			<point x="585" y="311"/>
			<point x="484" y="71"/>
			<point x="342" y="-56" type="curve"/>
			<point x="350" y="-61"/>
			<point x="361" y="-71"/>
			<point x="367" y="-79" type="curve"/>
			<point x="510" y="54"/>
			<point x="614" y="297"/>
			<point x="649" y="670" type="curve"/>
			<point x="630" y="676" type="line"/>
			<point x="623" y="675" type="line"/>
		</contour>
		<contour>
			<point x="377" y="445" type="line"/>
			<point x="446" y="395"/>
			<point x="522" y="321"/>
			<point x="558" y="270" type="curve"/>
			<point x="576" y="295" type="line"/>
			<point x="541" y="344"/>
			<point x="464" y="416"/>
			<point x="394" y="466" type="curve"/>
		</contour>
	</outline>
</glyph>
<glyph name="c14879" format="1">
	<advance width="1000"/>
	<outline>
		<contour>
			<point x="93" y="771" type="line"/>
			<point x="93" y="741" type="line"/>
			<point x="304" y="741" type="line"/>
			<point x="304" y="126" type="line"/>
			<point x="93" y="126" type="line"/>
			<point x="93" y="96" type="line"/>
			<point x="334" y="96" type="line"/>
			<point x="334" y="771" type="line"/>
		</contour>
		<contour>
			<point x="91" y="560" type="line"/>
			<point x="91" y="530" type="line"/>
			<point x="321" y="530" type="line"/>
			<point x="321" y="560" type="line"/>
		</contour>
		<contour>
			<point x="91" y="346" type="line"/>
			<point x="91" y="316" type="line"/>
			<point x="321" y="316" type="line"/>
			<point x="321" y="346" type="line"/>
		</contour>
		<contour>
			<point x="77" y="771" type="line"/>
			<point x="77" y="1" type="line"/>
			<point x="107" y="1" type="line"/>
			<point x="107" y="771" type="line"/>
		</contour>
		<contour>
			<point x="373" y="-21" type="line"/>
			<point x="373" y="-51" type="line"/>
			<point x="959" y="-51" type="line"/>
			<point x="959" y="-21" type="line"/>
		</contour>
		<contour>
			<point x="438" y="162" type="line"/>
			<point x="438" y="131" type="line"/>
			<point x="911" y="131" type="line"/>
			<point x="911" y="162" type="line"/>
		</contour>
		<contour>
			<point x="467" y="610" type="line"/>
			<point x="870" y="610" type="line"/>
			<point x="870" y="482" type="line"/>
			<point x="467" y="482" type="line"/>
		</contour>
		<contour>
			<point x="467" y="766" type="line"/>
			<point x="870" y="766" type="line"/>
			<point x="870" y="640" type="line"/>
			<point x="467" y="640" type="line"/>
		</contour>
		<contour>
			<point x="437" y="796" type="line"/>
			<point x="437" y="452" type="line"/>
			<point x="900" y="452" type="line"/>
			<point x="900" y="796" type="line"/>
		</contour>
		<contour>
			<point x="657" y="425" type="line"/>
			<point x="657" y="-34" type="line"/>
			<point x="687" y="-34" type="line"/>
			<point x="687" y="425" type="line"/>
		</contour>
		<contour>
			<point x="493" y="427" type="line"/>
			<point x="463" y="340"/>
			<point x="414" y="257"/>
			<point x="356" y="200" type="curve"/>
			<point x="364" y="195"/>
			<point x="377" y="185"/>
			<point x="382" y="181" type="curve"/>
			<point x="438" y="240"/>
			<point x="491" y="329"/>
			<point x="523" y="420" type="curve"/>
		</contour>
		<contour>
			<point x="465" y="320" type="line"/>
			<point x="450" y="290" type="line"/>
			<point x="929" y="290" type="line"/>
			<point x="929" y="320" type="line"/>
		</contour>
	</outline>
</glyph>
<glyph name="c15147" format="1">
	<advance width="1000"/>
	<outline>
		<contour>
			<point x="410" y="800" type="line"/>
			<point x="410" y="525" type="line"/>
			<point x="410" y="480"/>
			<point x="425" y="472"/>
			<point x="477" y="472" type="curve"/>
			<point x="488" y="472"/>
			<point x="588" y="472"/>
			<point x="599" y="472" type="curve"/>
			<point x="643" y="472"/>
			<point x="653" y="492"/>
			<point x="656" y="568" type="curve"/>
			<point x="647" y="570"/>
			<point x="635" y="575"/>
			<point x="627" y="581" type="curve"/>
			<point x="625" y="511"/>
			<point x="621" y="502"/>
			<point x="596" y="502" type="curve"/>
			<point x="575" y="502"/>
			<point x="492" y="502"/>
			<point x="477" y="502" type="curve"/>
			<point x="445" y="502"/>
			<point x="440" y="506"/>
			<point x="440" y="525" type="curve"/>
			<point x="440" y="800" type="line"/>
		</contour>
		<contour>
			<point x="410" y="326" type="line"/>
			<point x="410" y="296" type="line"/>
			<point x="946" y="296" type="line"/>
			<point x="946" y="326" type="line"/>
		</contour>
		<contour>
			<point x="378" y="148" type="line"/>
			<point x="378" y="118" type="line"/>
			<point x="964" y="118" type="line"/>
			<point x="964" y="148" type="line"/>
		</contour>
		<contour>
			<point x="542" y="441" type="line"/>
			<point x="542" y="135" type="line"/>
			<point x="572" y="135" type="line"/>
			<point x="572" y="441" type="line"/>
		</contour>
		<contour>
			<point x="776" y="441" type="line"/>
			<point x="776" y="135" type="line"/>
			<point x="806" y="135" type="line"/>
			<point x="806" y="441" type="line"/>
		</contour>
		<contour>
			<point x="424" y="800" type="line"/>
			<point x="424" y="770" type="line"/>
			<point x="614" y="770" type="line"/>
			<point x="614" y="657" type="line"/>
			<point x="424" y="657" type="line"/>
			<point x="424" y="627" type="line"/>
			<point x="644" y="627" type="line"/>
			<point x="644" y="800" type="line"/>
		</contour>
		<contour>
			<point x="700" y="800" type="line"/>
			<point x="700" y="526" type="line"/>
			<point x="700" y="480"/>
			<point x="716" y="472"/>
			<point x="771" y="472" type="curve"/>
			<point x="783" y="472"/>
			<point x="893" y="472"/>
			<point x="905" y="472" type="curve"/>
			<point x="951" y="472"/>
			<point x="962" y="492"/>
			<point x="965" y="569" type="curve"/>
			<point x="955" y="572"/>
			<point x="944" y="576"/>
			<point x="936" y="582" type="curve"/>
			<point x="933" y="512"/>
			<point x="929" y="502"/>
			<point x="902" y="502" type="curve"/>
			<point x="880" y="502"/>
			<point x="787" y="502"/>
			<point x="771" y="502" type="curve"/>
			<point x="735" y="502"/>
			<point x="730" y="507"/>
			<point x="730" y="526" type="curve"/>
			<point x="730" y="800" type="line"/>
		</contour>
		<contour>
			<point x="714" y="800" type="line"/>
			<point x="714" y="770" type="line"/>
			<point x="904" y="770" type="line"/>
			<point x="904" y="654" type="line"/>
			<point x="714" y="654" type="line"/>
			<point x="714" y="624" type="line"/>
			<point x="934" y="624" type="line"/>
			<point x="934" y="800" type="line"/>
		</contour>
		<contour>
			<point x="559" y="78" type="line"/>
			<point x="513" y="23"/>
			<point x="434" y="-28"/>
			<point x="361" y="-62" type="curve"/>
			<point x="368" y="-67"/>
			<point x="380" y="-80"/>
			<point x="384" y="-86" type="curve"/>
			<point x="456" y="-49"/>
			<point x="539" y="9"/>
			<point x="588" y="69" type="curve"/>
		</contour>
		<contour>
			<point x="762" y="59" type="line"/>
			<point x="826" y="16"/>
			<point x="903" y="-46"/>
			<point x="943" y="-85" type="curve"/>
			<point x="966" y="-64" type="line"/>
			<point x="926" y="-26"/>
			<point x="848" y="34"/>
			<point x="785" y="76" type="curve"/>
		</contour>
		<contour>
			<point x="80" y="535" type="line"/>
			<point x="80" y="505" type="line"/>
			<point x="346" y="505" type="line"/>
			<point x="346" y="535" type="line"/>
		</contour>
		<contour>
			<point x="85" y="799" type="line"/>
			<point x="85" y="769" type="line"/>
			<point x="342" y="769" type="line"/>
			<point x="342" y="799" type="line"/>
		</contour>
		<contour>
			<point x="80" y="401" type="line"/>
			<point x="80" y="371" type="line"/>
			<point x="346" y="371" type="line"/>
			<point x="346" y="401" type="line"/>
		</contour>
		<contour>
			<point x="38" y="669" type="line"/>
			<point x="38" y="639" type="line"/>
			<point x="372" y="639" type="line"/>
			<point x="372" y="669" type="line"/>
		</contour>
		<contour>
			<point x="95" y="267" type="line"/>
			<point x="95" y="237" type="line"/>
			<point x="315" y="237" type="line"/>
			<point x="315" y="12" type="line"/>
			<point x="95" y="12" type="line"/>
			<point x="95" y="-18" type="line"/>
			<point x="345" y="-18" type="line"/>
			<point x="345" y="267" type="line"/>
		</contour>
		<contour>
			<point x="80" y="267" type="line"/>
			<point x="80" y="-71" type="line"/>
			<point x="110" y="-71" type="line"/>
			<point x="110" y="267" type="line"/>
		</contour>
	</outline>
</glyph>
<glyph name="c15202" format="1">
	<advance width="1000"/>
	<outline>
		<contour>
			<point x="114" y="743" type="line"/>
			<point x="114" y="713" type="line"/>
			<point x="623" y="713" type="line"/>
			<point x="623" y="743" type="line"/>
		</contour>
		<contour>
			<point x="213" y="215" type="line"/>
			<point x="213" y="185" type="line"/>
			<point x="362" y="185" type="line"/>
			<point x="362" y="215" type="line"/>
		</contour>
		<contour>
			<point x="334" y="838" type="line"/>
			<point x="334" y="725" type="line"/>
			<point x="364" y="725" type="line"/>
			<point x="364" y="838" type="line"/>
		</contour>
		<contour>
			<point x="255" y="684" type="line"/>
			<point x="255" y="373" type="line"/>
			<point x="285" y="373" type="line"/>
			<point x="285" y="684" type="line"/>
		</contour>
		<contour>
			<point x="419" y="684" type="line"/>
			<point x="419" y="373" type="line"/>
			<point x="449" y="373" type="line"/>
			<point x="449" y="684" type="line"/>
		</contour>
		<contour>
			<point x="98" y="743" type="line"/>
			<point x="98" y="391" type="line"/>
			<point x="98" y="260"/>
			<point x="92" y="87"/>
			<point x="25" y="-37" type="curve"/>
			<point x="32" y="-40"/>
			<point x="45" y="-48"/>
			<point x="50" y="-54" type="curve"/>
			<point x="119" y="73"/>
			<point x="128" y="257"/>
			<point x="128" y="391" type="curve"/>
			<point x="128" y="743" type="line"/>
		</contour>
		<contour>
			<point x="114" y="583" type="line"/>
			<point x="114" y="553" type="line"/>
			<point x="580" y="553" type="line"/>
			<point x="580" y="394" type="line"/>
			<point x="114" y="394" type="line"/>
			<point x="114" y="364" type="line"/>
			<point x="610" y="364" type="line"/>
			<point x="610" y="583" type="line"/>
		</contour>
		<contour>
			<point x="192" y="338" type="line"/>
			<point x="192" y="-41" type="line"/>
			<point x="222" y="-37" type="line"/>
			<point x="222" y="338" type="line"/>
		</contour>
		<contour>
			<point x="115" y="-41" type="curve"/>
			<point x="123" y="-71" type="line"/>
			<point x="194" y="-54"/>
			<point x="284" y="-32"/>
			<point x="375" y="-10" type="curve"/>
			<point x="373" y="19" type="line"/>
			<point x="275" y="-4"/>
			<point x="181" y="-27"/>
		</contour>
		<contour>
			<point x="403" y="342" type="line"/>
			<point x="403" y="-6" type="line"/>
			<point x="403" y="-51"/>
			<point x="416" y="-60"/>
			<point x="465" y="-60" type="curve"/>
			<point x="475" y="-60"/>
			<point x="557" y="-60"/>
			<point x="568" y="-60" type="curve"/>
			<point x="611" y="-60"/>
			<point x="620" y="-36"/>
			<point x="623" y="63" type="curve"/>
			<point x="614" y="65"/>
			<point x="603" y="70"/>
			<point x="595" y="76" type="curve"/>
			<point x="593" y="-18"/>
			<point x="589" y="-33"/>
			<point x="565" y="-33" type="curve"/>
			<point x="547" y="-33"/>
			<point x="479" y="-33"/>
			<point x="466" y="-33" type="curve"/>
			<point x="438" y="-33"/>
			<point x="433" y="-29"/>
			<point x="433" y="-7" type="curve"/>
			<point x="433" y="342" type="line"/>
		</contour>
		<contour>
			<point x="583" y="268" type="line"/>
			<point x="540" y="240"/>
			<point x="464" y="196"/>
			<point x="411" y="172" type="curve"/>
			<point x="428" y="153" type="line"/>
			<point x="481" y="175"/>
			<point x="555" y="210"/>
			<point x="605" y="245" type="curve"/>
		</contour>
		<contour>
			<point x="670" y="770" type="line"/>
			<point x="670" y="-81" type="line"/>
			<point x="700" y="-81" type="line"/>
			<point x="700" y="740" type="line"/>
			<point x="933" y="740" type="line"/>
			<point x="933" y="770" type="line"/>
		</contour>
		<contour>
			<point x="924" y="770" type="line"/>
			<point x="924" y="763" type="line"/>
			<point x="888" y="676"/>
			<point x="831" y="551"/>
			<point x="773" y="439" type="curve"/>
			<point x="885" y="336"/>
			<point x="919" y="257"/>
			<point x="919" y="185" type="curve"/>
			<point x="919" y="146"/>
			<point x="912" y="107"/>
			<point x="888" y="92" type="curve"/>
			<point x="875" y="85"/>
			<point x="858" y="81"/>
			<point x="839" y="79" type="curve"/>
			<point x="814" y="78"/>
			<point x="776" y="78"/>
			<point x="737" y="82" type="curve"/>
			<point x="744" y="72"/>
			<point x="749" y="59"/>
			<point x="750" y="50" type="curve"/>
			<point x="780" y="48"/>
			<point x="818" y="47"/>
			<point x="848" y="50" type="curve"/>
			<point x="871" y="52"/>
			<point x="893" y="58"/>
			<point x="908" y="68" type="curve"/>
			<point x="939" y="88"/>
			<point x="950" y="136"/>
			<point x="950" y="185" type="curve"/>
			<point x="950" y="261"/>
			<point x="919" y="342"/>
			<point x="810" y="444" type="curve"/>
			<point x="861" y="546"/>
			<point x="916" y="664"/>
			<point x="957" y="757" type="curve"/>
			<point x="936" y="772" type="line"/>
			<point x="930" y="770" type="line"/>
		</contour>
	</outline>
</glyph>
<glyph name="c15324" format="1">
	<advance width="1000"/>
	<outline>
		<contour>
			<point x="221" y="274" type="line"/>
			<point x="221" y="244" type="line"/>
			<point x="780" y="244" type="line"/>
			<point x="780" y="274" type="line"/>
		</contour>
		<contour>
			<point x="83" y="170" type="line"/>
			<point x="83" y="140" type="line"/>
			<point x="916" y="140" type="line"/>
			<point x="916" y="170" type="line"/>
		</contour>
		<contour>
			<point x="506" y="456" type="line"/>
			<point x="506" y="366" type="line"/>
			<point x="536" y="366" type="line"/>
			<point x="536" y="456" type="line"/>
		</contour>
		<contour>
			<point x="640" y="84" type="line"/>
			<point x="725" y="43"/>
			<point x="826" y="-21"/>
			<point x="878" y="-66" type="curve"/>
			<point x="897" y="-41" type="line"/>
			<point x="845" y="3"/>
			<point x="743" y="65"/>
			<point x="659" y="105" type="curve"/>
		</contour>
		<contour>
			<point x="82" y="378" type="line"/>
			<point x="82" y="253" type="line"/>
			<point x="112" y="253" type="line"/>
			<point x="112" y="348" type="line"/>
			<point x="887" y="348" type="line"/>
			<point x="887" y="253" type="line"/>
			<point x="917" y="253" type="line"/>
			<point x="917" y="378" type="line"/>
		</contour>
		<contour>
			<point x="484" y="159" type="line"/>
			<point x="484" y="-40" type="line"/>
			<point x="484" y="-52"/>
			<point x="480" y="-55"/>
			<point x="465" y="-56" type="curve"/>
			<point x="451" y="-57"/>
			<point x="399" y="-57"/>
			<point x="333" y="-56" type="curve"/>
			<point x="338" y="-64"/>
			<point x="343" y="-74"/>
			<point x="345" y="-82" type="curve"/>
			<point x="426" y="-82"/>
			<point x="468" y="-82"/>
			<point x="489" y="-76" type="curve"/>
			<point x="509" y="-71"/>
			<point x="514" y="-61"/>
			<point x="514" y="-39" type="curve"/>
			<point x="514" y="159" type="line"/>
		</contour>
		<contour>
			<point x="285" y="99" type="line"/>
			<point x="229" y="43"/>
			<point x="141" y="-12"/>
			<point x="60" y="-49" type="curve"/>
			<point x="69" y="-54"/>
			<point x="82" y="-64"/>
			<point x="87" y="-69" type="curve"/>
			<point x="163" y="-31"/>
			<point x="254" y="29"/>
			<point x="314" y="89" type="curve"/>
		</contour>
		<contour>
			<point x="153" y="726" type="line"/>
			<point x="153" y="696" type="line"/>
			<point x="478" y="696" type="line"/>
			<point x="478" y="726" type="line"/>
		</contour>
		<contour>
			<point x="153" y="641" type="line"/>
			<point x="153" y="611" type="line"/>
			<point x="478" y="611" type="line"/>
			<point x="478" y="641" type="line"/>
		</contour>
		<contour>
			<point x="50" y="556" type="line"/>
			<point x="50" y="526" type="line"/>
			<point x="550" y="526" type="line"/>
			<point x="550" y="556" type="line"/>
		</contour>
		<contour>
			<point x="138" y="808" type="line"/>
			<point x="138" y="549" type="line"/>
			<point x="168" y="549" type="line"/>
			<point x="168" y="778" type="line"/>
			<point x="506" y="778" type="line"/>
			<point x="506" y="808" type="line"/>
		</contour>
		<contour>
			<point x="197" y="551" type="line"/>
			<point x="185" y="524"/>
			<point x="162" y="481"/>
			<point x="144" y="455" type="curve"/>
			<point x="172" y="444" type="line"/>
			<point x="190" y="471"/>
			<point x="209" y="504"/>
			<point x="227" y="540" type="curve"/>
		</contour>
		<contour>
			<point x="74" y="459" type="curve"/>
			<point x="78" y="427" type="line"/>
			<point x="178" y="432"/>
			<point x="315" y="439"/>
			<point x="452" y="447" type="curve"/>
			<point x="453" y="475" type="line"/>
			<point x="311" y="468"/>
			<point x="170" y="462"/>
		</contour>
		<contour>
			<point x="377" y="512" type="line"/>
			<point x="415" y="483"/>
			<point x="458" y="440"/>
			<point x="477" y="410" type="curve"/>
			<point x="501" y="428" type="line"/>
			<point x="482" y="458"/>
			<point x="439" y="500"/>
			<point x="401" y="528" type="curve"/>
		</contour>
		<contour>
			<point x="847" y="837" type="line"/>
			<point x="770" y="786"/>
			<point x="640" y="739"/>
			<point x="538" y="711" type="curve"/>
			<point x="546" y="705"/>
			<point x="554" y="695"/>
			<point x="560" y="688" type="curve"/>
			<point x="663" y="717"/>
			<point x="792" y="768"/>
			<point x="874" y="823" type="curve"/>
		</contour>
		<contour>
			<point x="874" y="727" type="line"/>
			<point x="803" y="671"/>
			<point x="676" y="624"/>
			<point x="564" y="597" type="curve"/>
			<point x="572" y="591"/>
			<point x="580" y="580"/>
			<point x="586" y="573" type="curve"/>
			<point x="698" y="602"/>
			<point x="827" y="653"/>
			<point x="902" y="714" type="curve"/>
		</contour>
		<contour>
			<point x="923" y="608" type="line"/>
			<point x="853" y="536"/>
			<point x="708" y="487"/>
			<point x="560" y="462" type="curve"/>
			<point x="567" y="455"/>
			<point x="575" y="444"/>
			<point x="580" y="436" type="curve"/>
			<point x="729" y="465"/>
			<point x="878" y="519"/>
			<point x="951" y="595" type="curve"/>
		</contour>
	</outline>
</glyph>
<glyph name="c16877" format="1">
	<advance width="1000"/>
	<outline>
		<contour>
			<point x="214" y="519" type="line"/>
			<point x="793" y="519" type="line"/>
			<point x="793" y="444" type="line"/>
			<point x="214" y="444" type="line"/>
		</contour>
		<contour>
			<point x="214" y="622" type="line"/>
			<point x="793" y="622" type="line"/>
			<point x="793" y="549" type="line"/>
			<point x="214" y="549" type="line"/>
		</contour>
		<contour>
			<point x="184" y="652" type="line"/>
			<point x="184" y="414" type="line"/>
			<point x="823" y="414" type="line"/>
			<point x="823" y="652" type="line"/>
		</contour>
		<contour>
			<point x="48" y="346" type="line"/>
			<point x="48" y="316" type="line"/>
			<point x="953" y="316" type="line"/>
			<point x="953" y="346" type="line"/>
		</contour>
		<contour>
			<point x="387" y="429" type="line"/>
			<point x="337" y="331"/>
			<point x="215" y="219"/>
			<point x="34" y="151" type="curve"/>
			<point x="42" y="146"/>
			<point x="51" y="136"/>
			<point x="56" y="129" type="curve"/>
			<point x="241" y="202"/>
			<point x="362" y="315"/>
			<point x="421" y="423" type="curve"/>
		</contour>
		<contour>
			<point x="683" y="338" type="curve"/>
			<point x="659" y="326" type="line"/>
			<point x="722" y="250"/>
			<point x="846" y="172"/>
			<point x="945" y="136" type="curve"/>
			<point x="950" y="144"/>
			<point x="959" y="154"/>
			<point x="966" y="160" type="curve"/>
			<point x="866" y="192"/>
			<point x="744" y="265"/>
		</contour>
		<contour>
			<point x="56" y="761" type="line"/>
			<point x="56" y="731" type="line"/>
			<point x="948" y="731" type="line"/>
			<point x="948" y="761" type="line"/>
		</contour>
		<contour>
			<point x="316" y="839" type="line"/>
			<point x="316" y="677" type="line"/>
			<point x="346" y="677" type="line"/>
			<point x="346" y="839" type="line"/>
		</contour>
		<contour>
			<point x="649" y="839" type="line"/>
			<point x="649" y="677" type="line"/>
			<point x="679" y="677" type="line"/>
			<point x="679" y="839" type="line"/>
		</contour>
		<contour>
			<point x="230" y="173" type="line"/>
			<point x="230" y="143" type="line"/>
			<point x="766" y="143" type="line"/>
			<point x="766" y="173" type="line"/>
		</contour>
		<contour>
			<point x="122" y="78" type="line"/>
			<point x="122" y="48" type="line"/>
			<point x="879" y="48" type="line"/>
			<point x="879" y="78" type="line"/>
		</contour>
		<contour>
			<point x="485" y="255" type="line"/>
			<point x="485" y="-33" type="line"/>
			<point x="485" y="-46"/>
			<point x="482" y="-50"/>
			<point x="465" y="-51" type="curve"/>
			<point x="448" y="-52"/>
			<point x="397" y="-53"/>
			<point x="322" y="-51" type="curve"/>
			<point x="327" y="-61"/>
			<point x="333" y="-71"/>
			<point x="335" y="-81" type="curve"/>
			<point x="415" y="-81"/>
			<point x="462" y="-81"/>
			<point x="486" y="-75" type="curve"/>
			<point x="509" y="-69"/>
			<point x="515" y="-58"/>
			<point x="515" y="-32" type="curve"/>
			<point x="515" y="255" type="line"/>
		</contour>
		<contour>
			<point x="628" y="293" type="line"/>
			<point x="558" y="275"/>
			<point x="423" y="259"/>
			<point x="310" y="251" type="curve"/>
			<point x="315" y="244"/>
			<point x="319" y="234"/>
			<point x="321" y="227" type="curve"/>
			<point x="436" y="234"/>
			<point x="571" y="249"/>
			<point x="658" y="271" type="curve"/>
		</contour>
	</outline>
</glyph>
<glyph name="c16976" format="1">
	<advance width="1000"/>
	<outline>
		<contour>
			<point x="43" y="774" type="line"/>
			<point x="43" y="744" type="line"/>
			<point x="363" y="744" type="line"/>
			<point x="363" y="774" type="line"/>
		</contour>
		<contour>
			<point x="56" y="488" type="line"/>
			<point x="56" y="458" type="line"/>
			<point x="345" y="458" type="line"/>
			<point x="345" y="488" type="line"/>
		</contour>
		<contour>
			<point x="29" y="120" type="curve"/>
			<point x="41" y="90" type="line"/>
			<point x="128" y="126"/>
			<point x="246" y="175"/>
			<point x="358" y="222" type="curve"/>
			<point x="352" y="252" type="line"/>
			<point x="232" y="202"/>
			<point x="109" y="151"/>
		</contour>
		<contour>
			<point x="183" y="762" type="line"/>
			<point x="183" y="163" type="line"/>
			<point x="213" y="176" type="line"/>
			<point x="213" y="762" type="line"/>
		</contour>
		<contour>
			<point x="340" y="-21" type="line"/>
			<point x="340" y="-51" type="line"/>
			<point x="962" y="-51" type="line"/>
			<point x="962" y="-21" type="line"/>
		</contour>
		<contour>
			<point x="420" y="164" type="line"/>
			<point x="420" y="133" type="line"/>
			<point x="916" y="133" type="line"/>
			<point x="916" y="164" type="line"/>
		</contour>
		<contour>
			<point x="450" y="610" type="line"/>
			<point x="869" y="610" type="line"/>
			<point x="869" y="481" type="line"/>
			<point x="450" y="481" type="line"/>
		</contour>
		<contour>
			<point x="450" y="767" type="line"/>
			<point x="869" y="767" type="line"/>
			<point x="869" y="640" type="line"/>
			<point x="450" y="640" type="line"/>
		</contour>
		<contour>
			<point x="420" y="797" type="line"/>
			<point x="420" y="451" type="line"/>
			<point x="899" y="451" type="line"/>
			<point x="899" y="797" type="line"/>
		</contour>
		<contour>
			<point x="656" y="425" type="line"/>
			<point x="656" y="-34" type="line"/>
			<point x="686" y="-34" type="line"/>
			<point x="686" y="425" type="line"/>
		</contour>
		<contour>
			<point x="478" y="430" type="line"/>
			<point x="450" y="340"/>
			<point x="403" y="256"/>
			<point x="344" y="199" type="curve"/>
			<point x="352" y="194"/>
			<point x="365" y="185"/>
			<point x="370" y="180" type="curve"/>
			<point x="427" y="240"/>
			<point x="478" y="329"/>
			<point x="508" y="424" type="curve"/>
		</contour>
		<contour>
			<point x="450" y="320" type="line"/>
			<point x="435" y="290" type="line"/>
			<point x="928" y="290" type="line"/>
			<point x="928" y="320" type="line"/>
		</contour>
	</outline>
</glyph>
<glyph name="c17700" format="1">
	<advance width="1000"/>
	<outline>
		<contour>
			<point x="371" y="729" type="line"/>
			<point x="371" y="699" type="line"/>
			<point x="952" y="699" type="line"/>
			<point x="952" y="729" type="line"/>
		</contour>
		<contour>
			<point x="475" y="197" type="line"/>
			<point x="475" y="167" type="line"/>
			<point x="656" y="167" type="line"/>
			<point x="656" y="197" type="line"/>
		</contour>
		<contour>
			<point x="461" y="310" type="line"/>
			<point x="461" y="-37" type="line"/>
			<point x="491" y="-37" type="line"/>
			<point x="491" y="310" type="line"/>
		</contour>
		<contour>
			<point x="623" y="839" type="line"/>
			<point x="623" y="717" type="line"/>
			<point x="653" y="717" type="line"/>
			<point x="653" y="839" type="line"/>
		</contour>
		<contour>
			<point x="539" y="666" type="line"/>
			<point x="539" y="360" type="line"/>
			<point x="569" y="360" type="line"/>
			<point x="569" y="666" type="line"/>
		</contour>
		<contour>
			<point x="723" y="666" type="line"/>
			<point x="723" y="360" type="line"/>
			<point x="753" y="360" type="line"/>
			<point x="753" y="666" type="line"/>
		</contour>
		<contour>
			<point x="914" y="248" type="line"/>
			<point x="863" y="213"/>
			<point x="773" y="164"/>
			<point x="710" y="135" type="curve"/>
			<point x="729" y="116" type="line"/>
			<point x="793" y="145"/>
			<point x="877" y="187"/>
			<point x="936" y="230" type="curve"/>
		</contour>
		<contour>
			<point x="376" y="563" type="line"/>
			<point x="376" y="533" type="line"/>
			<point x="902" y="533" type="line"/>
			<point x="902" y="380" type="line"/>
			<point x="376" y="380" type="line"/>
			<point x="376" y="350" type="line"/>
			<point x="932" y="350" type="line"/>
			<point x="932" y="563" type="line"/>
		</contour>
		<contour>
			<point x="705" y="312" type="line"/>
			<point x="705" y="-20" type="line"/>
			<point x="705" y="-67"/>
			<point x="720" y="-76"/>
			<point x="775" y="-76" type="curve"/>
			<point x="787" y="-76"/>
			<point x="890" y="-76"/>
			<point x="902" y="-76" type="curve"/>
			<point x="950" y="-76"/>
			<point x="960" y="-52"/>
			<point x="963" y="46" type="curve"/>
			<point x="954" y="48"/>
			<point x="942" y="53"/>
			<point x="934" y="59" type="curve"/>
			<point x="932" y="-33"/>
			<point x="927" y="-47"/>
			<point x="899" y="-47" type="curve"/>
			<point x="878" y="-47"/>
			<point x="791" y="-47"/>
			<point x="775" y="-47" type="curve"/>
			<point x="741" y="-47"/>
			<point x="735" y="-43"/>
			<point x="735" y="-20" type="curve"/>
			<point x="735" y="312" type="line"/>
		</contour>
		<contour>
			<point x="377" y="-43" type="curve"/>
			<point x="387" y="-74" type="line"/>
			<point x="466" y="-57"/>
			<point x="569" y="-35"/>
			<point x="671" y="-14" type="curve"/>
			<point x="668" y="15" type="line"/>
			<point x="558" y="-7"/>
			<point x="451" y="-30"/>
		</contour>
		<contour>
			<point x="359" y="729" type="line"/>
			<point x="359" y="414" type="line"/>
			<point x="359" y="269"/>
			<point x="350" y="76"/>
			<point x="259" y="-64" type="curve"/>
			<point x="267" y="-67"/>
			<point x="279" y="-75"/>
			<point x="285" y="-80" type="curve"/>
			<point x="376" y="62"/>
			<point x="389" y="265"/>
			<point x="389" y="414" type="curve"/>
			<point x="389" y="729" type="line"/>
		</contour>
		<contour>
			<point x="25" y="294" type="curve"/>
			<point x="38" y="263" type="line"/>
			<point x="121" y="293"/>
			<point x="234" y="334"/>
			<point x="342" y="373" type="curve"/>
			<point x="337" y="404" type="line"/>
			<point x="220" y="362"/>
			<point x="102" y="320"/>
		</contour>
		<contour>
			<point x="38" y="621" type="line"/>
			<point x="38" y="591" type="line"/>
			<point x="345" y="591" type="line"/>
			<point x="345" y="621" type="line"/>
		</contour>
		<contour>
			<point x="186" y="839" type="line"/>
			<point x="186" y="-32" type="line"/>
			<point x="186" y="-47"/>
			<point x="180" y="-51"/>
			<point x="167" y="-51" type="curve"/>
			<point x="155" y="-52"/>
			<point x="112" y="-52"/>
			<point x="60" y="-51" type="curve"/>
			<point x="65" y="-60"/>
			<point x="70" y="-73"/>
			<point x="72" y="-80" type="curve"/>
			<point x="136" y="-81"/>
			<point x="170" y="-80"/>
			<point x="188" y="-75" type="curve"/>
			<point x="207" y="-69"/>
			<point x="216" y="-59"/>
			<point x="216" y="-32" type="curve"/>
			<point x="216" y="839" type="line"/>
		</contour>
	</outline>
</glyph>
<glyph name="c17751" format="1">
	<advance width="1000"/>
	<outline>
		<contour>
			<point x="96" y="764" type="line"/>
			<point x="96" y="734" type="line"/>
			<point x="307" y="734" type="line"/>
			<point x="307" y="156" type="line"/>
			<point x="96" y="156" type="line"/>
			<point x="96" y="126" type="line"/>
			<point x="337" y="126" type="line"/>
			<point x="337" y="764" type="line"/>
		</contour>
		<contour>
			<point x="96" y="466" type="line"/>
			<point x="96" y="436" type="line"/>
			<point x="317" y="436" type="line"/>
			<point x="317" y="466" type="line"/>
		</contour>
		<contour>
			<point x="80" y="764" type="line"/>
			<point x="80" y="44" type="line"/>
			<point x="110" y="44" type="line"/>
			<point x="110" y="764" type="line"/>
		</contour>
		<contour>
			<point x="373" y="-21" type="line"/>
			<point x="373" y="-51" type="line"/>
			<point x="959" y="-51" type="line"/>
			<point x="959" y="-21" type="line"/>
		</contour>
		<contour>
			<point x="438" y="162" type="line"/>
			<point x="438" y="131" type="line"/>
			<point x="911" y="131" type="line"/>
			<point x="911" y="162" type="line"/>
		</contour>
		<contour>
			<point x="467" y="610" type="line"/>
			<point x="870" y="610" type="line"/>
			<point x="870" y="482" type="line"/>
			<point x="467" y="482" type="line"/>
		</contour>
		<contour>
			<point x="467" y="766" type="line"/>
			<point x="870" y="766" type="line"/>
			<point x="870" y="640" type="line"/>
			<point x="467" y="640" type="line"/>
		</contour>
		<contour>
			<point x="437" y="796" type="line"/>
			<point x="437" y="452" type="line"/>
			<point x="900" y="452" type="line"/>
			<point x="900" y="796" type="line"/>
		</contour>
		<contour>
			<point x="657" y="425" type="line"/>
			<point x="657" y="-34" type="line"/>
			<point x="687" y="-34" type="line"/>
			<point x="687" y="425" type="line"/>
		</contour>
		<contour>
			<point x="493" y="427" type="line"/>
			<point x="463" y="340"/>
			<point x="414" y="257"/>
			<point x="356" y="200" type="curve"/>
			<point x="364" y="195"/>
			<point x="377" y="185"/>
			<point x="382" y="181" type="curve"/>
			<point x="438" y="240"/>
			<point x="491" y="329"/>
			<point x="523" y="420" type="curve"/>
		</contour>
		<contour>
			<point x="465" y="320" type="line"/>
			<point x="450" y="290" type="line"/>
			<point x="929" y="290" type="line"/>
			<point x="929" y="320" type="line"/>
		</contour>
	</outline>
</glyph>
<glyph name="c17852" format="1">
	<advance width="1000"/>
	<outline>
		<contour>
			<point x="51" y="612" type="line"/>
			<point x="51" y="582" type="line"/>
			<point x="358" y="582" type="line"/>
			<point x="358" y="612" type="line"/>
		</contour>
		<contour>
			<point x="209" y="840" type="line"/>
			<point x="209" y="-78" type="line"/>
			<point x="239" y="-78" type="line"/>
			<point x="239" y="840" type="line"/>
		</contour>
		<contour>
			<point x="203" y="602" type="line"/>
			<point x="172" y="442"/>
			<point x="98" y="249"/>
			<point x="30" y="154" type="curve"/>
			<point x="37" y="149"/>
			<point x="47" y="138"/>
			<point x="53" y="130" type="curve"/>
			<point x="123" y="231"/>
			<point x="197" y="434"/>
			<point x="230" y="594" type="curve"/>
		</contour>
		<contour>
			<point x="234" y="451" type="curve"/>
			<point x="213" y="435" type="line"/>
			<point x="238" y="409"/>
			<point x="310" y="317"/>
			<point x="331" y="284" type="curve"/>
			<point x="355" y="308" type="line"/>
			<point x="337" y="333"/>
			<point x="256" y="429"/>
		</contour>
		<contour>
			<point x="391" y="729" type="line"/>
			<point x="391" y="699" type="line"/>
			<point x="950" y="699" type="line"/>
			<point x="950" y="729" type="line"/>
		</contour>
		<contour>
			<point x="493" y="211" type="line"/>
			<point x="493" y="181" type="line"/>
			<point x="669" y="181" type="line"/>
			<point x="669" y="211" type="line"/>
		</contour>
		<contour>
			<point x="475" y="331" type="line"/>
			<point x="475" y="-34" type="line"/>
			<point x="505" y="-34" type="line"/>
			<point x="505" y="331" type="line"/>
		</contour>
		<contour>
			<point x="640" y="839" type="line"/>
			<point x="640" y="717" type="line"/>
			<point x="670" y="717" type="line"/>
			<point x="670" y="839" type="line"/>
		</contour>
		<contour>
			<point x="555" y="667" type="line"/>
			<point x="555" y="379" type="line"/>
			<point x="585" y="379" type="line"/>
			<point x="585" y="667" type="line"/>
		</contour>
		<contour>
			<point x="733" y="667" type="line"/>
			<point x="733" y="379" type="line"/>
			<point x="763" y="379" type="line"/>
			<point x="763" y="667" type="line"/>
		</contour>
		<contour>
			<point x="919" y="273" type="line"/>
			<point x="867" y="237"/>
			<point x="778" y="189"/>
			<point x="717" y="160" type="curve"/>
			<point x="732" y="139" type="line"/>
			<point x="794" y="167"/>
			<point x="880" y="208"/>
			<point x="937" y="252" type="curve"/>
		</contour>
		<contour>
			<point x="396" y="575" type="line"/>
			<point x="396" y="545" type="line"/>
			<point x="913" y="545" type="line"/>
			<point x="913" y="395" type="line"/>
			<point x="396" y="395" type="line"/>
			<point x="396" y="365" type="line"/>
			<point x="943" y="365" type="line"/>
			<point x="943" y="575" type="line"/>
		</contour>
		<contour>
			<point x="711" y="333" type="line"/>
			<point x="711" y="-11" type="line"/>
			<point x="711" y="-58"/>
			<point x="726" y="-67"/>
			<point x="780" y="-67" type="curve"/>
			<point x="792" y="-67"/>
			<point x="892" y="-67"/>
			<point x="904" y="-67" type="curve"/>
			<point x="952" y="-67"/>
			<point x="962" y="-42"/>
			<point x="965" y="60" type="curve"/>
			<point x="956" y="63"/>
			<point x="945" y="67"/>
			<point x="937" y="73" type="curve"/>
			<point x="934" y="-24"/>
			<point x="930" y="-38"/>
			<point x="901" y="-38" type="curve"/>
			<point x="880" y="-38"/>
			<point x="796" y="-38"/>
			<point x="780" y="-38" type="curve"/>
			<point x="747" y="-38"/>
			<point x="741" y="-33"/>
			<point x="741" y="-11" type="curve"/>
			<point x="741" y="333" type="line"/>
		</contour>
		<contour>
			<point x="395" y="-38" type="curve"/>
			<point x="405" y="-69" type="line"/>
			<point x="482" y="-53"/>
			<point x="582" y="-31"/>
			<point x="681" y="-10" type="curve"/>
			<point x="679" y="19" type="line"/>
			<point x="571" y="-3"/>
			<point x="467" y="-25"/>
		</contour>
		<contour>
			<point x="379" y="729" type="line"/>
			<point x="379" y="413" type="line"/>
			<point x="379" y="271"/>
			<point x="372" y="77"/>
			<point x="298" y="-64" type="curve"/>
			<point x="306" y="-67"/>
			<point x="319" y="-74"/>
			<point x="324" y="-80" type="curve"/>
			<point x="399" y="63"/>
			<point x="409" y="268"/>
			<point x="409" y="413" type="curve"/>
			<point x="409" y="729" type="line"/>
		</contour>
	</outline>
</glyph>
<glyph name="c18165" format="1">
	<advance width="1000"/>
	<outline>
		<contour>
			<point x="197" y="742" type="line"/>
			<point x="197" y="712" type="line"/>
			<point x="954" y="712" type="line"/>
			<point x="954" y="742" type="line"/>
		</contour>
		<contour>
			<point x="180" y="742" type="line"/>
			<point x="180" y="414" type="line"/>
			<point x="180" y="268"/>
			<point x="167" y="83"/>
			<point x="48" y="-51" type="curve"/>
			<point x="55" y="-55"/>
			<point x="66" y="-65"/>
			<point x="71" y="-72" type="curve"/>
			<point x="193" y="67"/>
			<point x="210" y="264"/>
			<point x="210" y="414" type="curve"/>
			<point x="210" y="742" type="line"/>
		</contour>
		<contour>
			<point x="538" y="839" type="line"/>
			<point x="538" y="722" type="line"/>
			<point x="568" y="722" type="line"/>
			<point x="568" y="839" type="line"/>
		</contour>
		<contour>
			<point x="42" y="650" type="line"/>
			<point x="76" y="588"/>
			<point x="106" y="506"/>
			<point x="115" y="454" type="curve"/>
			<point x="144" y="466" type="line"/>
			<point x="136" y="516"/>
			<point x="105" y="597"/>
			<point x="70" y="659" type="curve"/>
		</contour>
		<contour>
			<point x="22" y="253" type="curve"/>
			<point x="39" y="228" type="line"/>
			<point x="89" y="256"/>
			<point x="144" y="289"/>
			<point x="199" y="322" type="curve"/>
			<point x="192" y="347" type="line"/>
			<point x="127" y="310"/>
			<point x="66" y="275"/>
		</contour>
		<contour>
			<point x="264" y="613" type="line"/>
			<point x="264" y="583" type="line"/>
			<point x="940" y="583" type="line"/>
			<point x="940" y="613" type="line"/>
		</contour>
		<contour>
			<point x="253" y="131" type="line"/>
			<point x="253" y="101" type="line"/>
			<point x="956" y="101" type="line"/>
			<point x="956" y="131" type="line"/>
		</contour>
		<contour>
			<point x="456" y="685" type="line"/>
			<point x="456" y="505" type="line"/>
			<point x="486" y="505" type="line"/>
			<point x="486" y="685" type="line"/>
		</contour>
		<contour>
			<point x="712" y="685" type="line"/>
			<point x="712" y="505" type="line"/>
			<point x="742" y="505" type="line"/>
			<point x="742" y="685" type="line"/>
		</contour>
		<contour>
			<point x="363" y="336" type="line"/>
			<point x="834" y="336" type="line"/>
			<point x="834" y="248" type="line"/>
			<point x="363" y="248" type="line"/>
		</contour>
		<contour>
			<point x="363" y="452" type="line"/>
			<point x="834" y="452" type="line"/>
			<point x="834" y="366" type="line"/>
			<point x="363" y="366" type="line"/>
		</contour>
		<contour>
			<point x="333" y="482" type="line"/>
			<point x="333" y="218" type="line"/>
			<point x="864" y="218" type="line"/>
			<point x="864" y="482" type="line"/>
		</contour>
		<contour>
			<point x="583" y="233" type="line"/>
			<point x="561" y="57"/>
			<point x="484" y="-18"/>
			<point x="226" y="-54" type="curve"/>
			<point x="232" y="-60"/>
			<point x="240" y="-73"/>
			<point x="243" y="-80" type="curve"/>
			<point x="505" y="-40"/>
			<point x="588" y="40"/>
			<point x="613" y="233" type="curve"/>
		</contour>
		<contour>
			<point x="634" y="118" type="curve"/>
			<point x="604" y="111" type="line"/>
			<point x="650" y="-2"/>
			<point x="773" y="-59"/>
			<point x="944" y="-82" type="curve"/>
			<point x="948" y="-71"/>
			<point x="956" y="-59"/>
			<point x="964" y="-52" type="curve"/>
			<point x="796" y="-37"/>
			<point x="677" y="15"/>
		</contour>
	</outline>
</glyph>
<glyph name="c18868" format="1">
	<advance width="1000"/>
	<outline>
		<contour>
			<point x="393" y="145" type="line"/>
			<point x="393" y="115" type="line"/>
			<point x="961" y="115" type="line"/>
			<point x="961" y="145" type="line"/>
		</contour>
		<contour>
			<point x="422" y="333" type="line"/>
			<point x="422" y="303" type="line"/>
			<point x="940" y="303" type="line"/>
			<point x="940" y="333" type="line"/>
		</contour>
		<contour>
			<point x="441" y="806" type="line"/>
			<point x="441" y="776" type="line"/>
			<point x="616" y="776" type="line"/>
			<point x="616" y="660" type="line"/>
			<point x="441" y="660" type="line"/>
			<point x="441" y="630" type="line"/>
			<point x="646" y="630" type="line"/>
			<point x="646" y="806" type="line"/>
		</contour>
		<contour>
			<point x="552" y="447" type="line"/>
			<point x="552" y="127" type="line"/>
			<point x="582" y="127" type="line"/>
			<point x="582" y="447" type="line"/>
		</contour>
		<contour>
			<point x="775" y="447" type="line"/>
			<point x="775" y="127" type="line"/>
			<point x="805" y="127" type="line"/>
			<point x="805" y="447" type="line"/>
		</contour>
		<contour>
			<point x="425" y="806" type="line"/>
			<point x="425" y="532" type="line"/>
			<point x="425" y="488"/>
			<point x="439" y="480"/>
			<point x="491" y="480" type="curve"/>
			<point x="501" y="480"/>
			<point x="598" y="480"/>
			<point x="609" y="480" type="curve"/>
			<point x="650" y="480"/>
			<point x="660" y="498"/>
			<point x="663" y="572" type="curve"/>
			<point x="654" y="574"/>
			<point x="643" y="578"/>
			<point x="635" y="584" type="curve"/>
			<point x="633" y="517"/>
			<point x="628" y="508"/>
			<point x="605" y="508" type="curve"/>
			<point x="585" y="508"/>
			<point x="505" y="508"/>
			<point x="491" y="508" type="curve"/>
			<point x="460" y="508"/>
			<point x="455" y="512"/>
			<point x="455" y="531" type="curve"/>
			<point x="455" y="806" type="line"/>
		</contour>
		<contour>
			<point x="725" y="806" type="line"/>
			<point x="725" y="776" type="line"/>
			<point x="900" y="776" type="line"/>
			<point x="900" y="660" type="line"/>
			<point x="725" y="660" type="line"/>
			<point x="725" y="630" type="line"/>
			<point x="930" y="630" type="line"/>
			<point x="930" y="806" type="line"/>
		</contour>
		<contour>
			<point x="709" y="806" type="line"/>
			<point x="709" y="532" type="line"/>
			<point x="709" y="488"/>
			<point x="724" y="480"/>
			<point x="777" y="480" type="curve"/>
			<point x="788" y="480"/>
			<point x="891" y="480"/>
			<point x="902" y="480" type="curve"/>
			<point x="945" y="480"/>
			<point x="955" y="498"/>
			<point x="958" y="572" type="curve"/>
			<point x="949" y="574"/>
			<point x="938" y="578"/>
			<point x="930" y="584" type="curve"/>
			<point x="928" y="517"/>
			<point x="923" y="508"/>
			<point x="899" y="508" type="curve"/>
			<point x="878" y="508"/>
			<point x="792" y="508"/>
			<point x="777" y="508" type="curve"/>
			<point x="744" y="508"/>
			<point x="739" y="512"/>
			<point x="739" y="532" type="curve"/>
			<point x="739" y="806" type="line"/>
		</contour>
		<contour>
			<point x="741" y="69" type="line"/>
			<point x="814" y="25"/>
			<point x="903" y="-39"/>
			<point x="948" y="-80" type="curve"/>
			<point x="972" y="-60" type="line"/>
			<point x="925" y="-19"/>
			<point x="836" y="43"/>
			<point x="764" y="86" type="curve"/>
		</contour>
		<contour>
			<point x="590" y="87" type="line"/>
			<point x="547" y="37"/>
			<point x="454" y="-21"/>
			<point x="375" y="-57" type="curve"/>
			<point x="382" y="-63"/>
			<point x="391" y="-75"/>
			<point x="396" y="-82" type="curve"/>
			<point x="474" y="-45"/>
			<point x="566" y="14"/>
			<point x="624" y="71" type="curve"/>
		</contour>
		<contour>
			<point x="35" y="-9" type="curve"/>
			<point x="44" y="-40" type="line"/>
			<point x="138" y="-19"/>
			<point x="270" y="10"/>
			<point x="396" y="38" type="curve"/>
			<point x="393" y="67" type="line"/>
			<point x="258" y="38"/>
			<point x="123" y="9"/>
		</contour>
		<contour>
			<point x="97" y="588" type="line"/>
			<point x="97" y="558" type="line"/>
			<point x="359" y="558" type="line"/>
			<point x="359" y="588" type="line"/>
		</contour>
		<contour>
			<point x="44" y="416" type="line"/>
			<point x="44" y="386" type="line"/>
			<point x="378" y="386" type="line"/>
			<point x="378" y="416" type="line"/>
		</contour>
		<contour>
			<point x="76" y="310" type="line"/>
			<point x="98" y="243"/>
			<point x="113" y="157"/>
			<point x="114" y="100" type="curve"/>
			<point x="145" y="106" type="line"/>
			<point x="143" y="162"/>
			<point x="127" y="249"/>
			<point x="104" y="315" type="curve"/>
		</contour>
		<contour>
			<point x="337" y="328" type="line"/>
			<point x="328" y="270"/>
			<point x="307" y="180"/>
			<point x="291" y="126" type="curve"/>
			<point x="319" y="116" type="line"/>
			<point x="336" y="170"/>
			<point x="354" y="252"/>
			<point x="369" y="318" type="curve"/>
		</contour>
		<contour>
			<point x="210" y="572" type="line"/>
			<point x="210" y="14" type="line"/>
			<point x="240" y="17" type="line"/>
			<point x="240" y="572" type="line"/>
		</contour>
		<contour>
			<point x="210" y="839" type="line"/>
			<point x="175" y="755"/>
			<point x="108" y="644"/>
			<point x="15" y="561" type="curve"/>
			<point x="22" y="557"/>
			<point x="32" y="550"/>
			<point x="38" y="544" type="curve"/>
			<point x="134" y="631"/>
			<point x="199" y="742"/>
			<point x="236" y="820" type="curve"/>
			<point x="236" y="829" type="line"/>
			<point x="226" y="829" type="line"/>
			<point x="226" y="839" type="line"/>
		</contour>
		<contour>
			<point x="219" y="839" type="line"/>
			<point x="219" y="817" type="line"/>
			<point x="227" y="817" type="line"/>
			<point x="280" y="763"/>
			<point x="340" y="682"/>
			<point x="370" y="633" type="curve"/>
			<point x="396" y="654" type="line"/>
			<point x="366" y="703"/>
			<point x="302" y="783"/>
			<point x="247" y="839" type="curve"/>
		</contour>
	</outline>
</glyph>
<glyph name="c19523" format="1">
	<advance width="1000"/>
	<outline>
		<contour>
			<point x="43" y="320" type="line"/>
			<point x="43" y="290" type="line"/>
			<point x="309" y="290" type="line"/>
			<point x="309" y="320" type="line"/>
		</contour>
		<contour>
			<point x="296" y="838" type="line"/>
			<point x="296" y="-80" type="line"/>
			<point x="326" y="-80" type="line"/>
			<point x="326" y="838" type="line"/>
		</contour>
		<contour>
			<point x="108" y="312" type="line"/>
			<point x="108" y="243" type="line"/>
			<point x="108" y="156"/>
			<point x="98" y="33"/>
			<point x="36" y="-65" type="curve"/>
			<point x="45" y="-69"/>
			<point x="56" y="-75"/>
			<point x="64" y="-82" type="curve"/>
			<point x="125" y="19"/>
			<point x="138" y="149"/>
			<point x="138" y="243" type="curve"/>
			<point x="138" y="312" type="line"/>
		</contour>
		<contour>
			<point x="356" y="697" type="line"/>
			<point x="356" y="667" type="line"/>
			<point x="964" y="667" type="line"/>
			<point x="964" y="697" type="line"/>
		</contour>
		<contour>
			<point x="359" y="258" type="line"/>
			<point x="359" y="228" type="line"/>
			<point x="954" y="228" type="line"/>
			<point x="954" y="258" type="line"/>
		</contour>
		<contour>
			<point x="644" y="363" type="line"/>
			<point x="644" y="-83" type="line"/>
			<point x="674" y="-83" type="line"/>
			<point x="674" y="363" type="line"/>
		</contour>
		<contour>
			<point x="622" y="249" type="line"/>
			<point x="564" y="140"/>
			<point x="448" y="32"/>
			<point x="342" y="-16" type="curve"/>
			<point x="349" y="-22"/>
			<point x="358" y="-32"/>
			<point x="363" y="-40" type="curve"/>
			<point x="469" y="14"/>
			<point x="586" y="124"/>
			<point x="646" y="238" type="curve"/>
		</contour>
		<contour>
			<point x="695" y="248" type="curve"/>
			<point x="670" y="237" type="line"/>
			<point x="734" y="130"/>
			<point x="854" y="14"/>
			<point x="952" y="-41" type="curve"/>
			<point x="958" y="-33"/>
			<point x="967" y="-23"/>
			<point x="974" y="-17" type="curve"/>
			<point x="875" y="32"/>
			<point x="756" y="144"/>
		</contour>
		<contour>
			<point x="617" y="840" type="line"/>
			<point x="617" y="515" type="line"/>
			<point x="837" y="515" type="line"/>
			<point x="837" y="828" type="line"/>
			<point x="807" y="828" type="line"/>
			<point x="807" y="545" type="line"/>
			<point x="647" y="545" type="line"/>
			<point x="647" y="840" type="line"/>
		</contour>
		<contour>
			<point x="453" y="822" type="line"/>
			<point x="453" y="384" type="line"/>
			<point x="937" y="384" type="line"/>
			<point x="937" y="414" type="line"/>
			<point x="483" y="414" type="line"/>
			<point x="483" y="822" type="line"/>
		</contour>
		<contour>
			<point x="93" y="796" type="line"/>
			<point x="93" y="505" type="line"/>
			<point x="311" y="505" type="line"/>
			<point x="311" y="535" type="line"/>
			<point x="123" y="535" type="line"/>
			<point x="123" y="796" type="line"/>
		</contour>
	</outline>
</glyph>
<glyph name="c22029" format="1">
	<advance width="1000"/>
	<outline>
		<contour>
			<point x="208" y="735" type="line"/>
			<point x="208" y="705" type="line"/>
			<point x="960" y="705" type="line"/>
			<point x="960" y="735" type="line"/>
		</contour>
		<contour>
			<point x="538" y="839" type="line"/>
			<point x="538" y="717" type="line"/>
			<point x="568" y="717" type="line"/>
			<point x="568" y="839" type="line"/>
		</contour>
		<contour>
			<point x="190" y="735" type="line"/>
			<point x="190" y="409" type="line"/>
			<point x="190" y="264"/>
			<point x="177" y="79"/>
			<point x="58" y="-54" type="curve"/>
			<point x="65" y="-58"/>
			<point x="76" y="-68"/>
			<point x="81" y="-74" type="curve"/>
			<point x="203" y="63"/>
			<point x="220" y="259"/>
			<point x="220" y="409" type="curve"/>
			<point x="220" y="735" type="line"/>
		</contour>
		<contour>
			<point x="52" y="645" type="line"/>
			<point x="86" y="583"/>
			<point x="116" y="501"/>
			<point x="125" y="449" type="curve"/>
			<point x="154" y="461" type="line"/>
			<point x="146" y="511"/>
			<point x="115" y="592"/>
			<point x="80" y="654" type="curve"/>
		</contour>
		<contour>
			<point x="32" y="243" type="curve"/>
			<point x="49" y="218" type="line"/>
			<point x="99" y="246"/>
			<point x="154" y="279"/>
			<point x="209" y="312" type="curve"/>
			<point x="202" y="337" type="line"/>
			<point x="137" y="300"/>
			<point x="76" y="265"/>
		</contour>
		<contour>
			<point x="248" y="76" type="line"/>
			<point x="248" y="46" type="line"/>
			<point x="946" y="46" type="line"/>
			<point x="946" y="76" type="line"/>
		</contour>
		<contour>
			<point x="351" y="511" type="line"/>
			<point x="351" y="481" type="line"/>
			<point x="856" y="481" type="line"/>
			<point x="856" y="511" type="line"/>
		</contour>
		<contour>
			<point x="365" y="267" type="line"/>
			<point x="832" y="267" type="line"/>
			<point x="832" y="183" type="line"/>
			<point x="365" y="183" type="line"/>
		</contour>
		<contour>
			<point x="365" y="379" type="line"/>
			<point x="832" y="379" type="line"/>
			<point x="832" y="297" type="line"/>
			<point x="365" y="297" type="line"/>
		</contour>
		<contour>
			<point x="335" y="409" type="line"/>
			<point x="335" y="153" type="line"/>
			<point x="862" y="153" type="line"/>
			<point x="862" y="409" type="line"/>
		</contour>
		<contour>
			<point x="579" y="570" type="line"/>
			<point x="579" y="-83" type="line"/>
			<point x="609" y="-83" type="line"/>
			<point x="609" y="570" type="line"/>
		</contour>
		<contour>
			<point x="291" y="626" type="line"/>
			<point x="291" y="484" type="line"/>
			<point x="321" y="484" type="line"/>
			<point x="321" y="596" type="line"/>
			<point x="890" y="596" type="line"/>
			<point x="890" y="484" type="line"/>
			<point x="920" y="484" type="line"/>
			<point x="920" y="626" type="line"/>
		</contour>
	</outline>
</glyph>
<glyph name="c22369" format="1">
	<advance width="1000"/>
	<outline>
		<contour>
			<point x="482" y="632" type="line"/>
			<point x="482" y="-79" type="line"/>
			<point x="513" y="-79" type="line"/>
			<point x="513" y="632" type="line"/>
		</contour>
		<contour>
			<point x="105" y="101" type="line"/>
			<point x="105" y="71" type="line"/>
			<point x="898" y="71" type="line"/>
			<point x="898" y="101" type="line"/>
		</contour>
		<contour>
			<point x="97" y="638" type="line"/>
			<point x="97" y="608" type="line"/>
			<point x="912" y="608" type="line"/>
			<point x="912" y="638" type="line"/>
		</contour>
		<contour>
			<point x="52" y="759" type="line"/>
			<point x="52" y="729" type="line"/>
			<point x="948" y="729" type="line"/>
			<point x="948" y="759" type="line"/>
		</contour>
		<contour>
			<point x="52" y="222" type="line"/>
			<point x="52" y="192" type="line"/>
			<point x="948" y="192" type="line"/>
			<point x="948" y="222" type="line"/>
		</contour>
		<contour>
			<point x="310" y="839" type="line"/>
			<point x="310" y="668" type="line"/>
			<point x="340" y="668" type="line"/>
			<point x="340" y="839" type="line"/>
		</contour>
		<contour>
			<point x="655" y="839" type="line"/>
			<point x="655" y="668" type="line"/>
			<point x="685" y="668" type="line"/>
			<point x="685" y="839" type="line"/>
		</contour>
		<contour>
			<point x="305" y="596" type="line"/>
			<point x="272" y="525"/>
			<point x="199" y="471"/>
			<point x="122" y="436" type="curve"/>
			<point x="129" y="430"/>
			<point x="140" y="418"/>
			<point x="144" y="412" type="curve"/>
			<point x="221" y="451"/>
			<point x="299" y="513"/>
			<point x="335" y="590" type="curve"/>
		</contour>
		<contour>
			<point x="278" y="532" type="line"/>
			<point x="331" y="500"/>
			<point x="394" y="453"/>
			<point x="426" y="421" type="curve"/>
			<point x="446" y="443" type="line"/>
			<point x="415" y="475"/>
			<point x="351" y="521"/>
			<point x="298" y="551" type="curve"/>
		</contour>
		<contour>
			<point x="298" y="439" type="line"/>
			<point x="262" y="363"/>
			<point x="184" y="304"/>
			<point x="101" y="266" type="curve"/>
			<point x="108" y="260"/>
			<point x="119" y="248"/>
			<point x="123" y="243" type="curve"/>
			<point x="206" y="284"/>
			<point x="289" y="350"/>
			<point x="328" y="433" type="curve"/>
		</contour>
		<contour>
			<point x="270" y="375" type="line"/>
			<point x="327" y="337"/>
			<point x="394" y="282"/>
			<point x="427" y="244" type="curve"/>
			<point x="449" y="266" type="line"/>
			<point x="416" y="303"/>
			<point x="348" y="357"/>
			<point x="291" y="393" type="curve"/>
		</contour>
		<contour>
			<point x="703" y="596" type="line"/>
			<point x="673" y="530"/>
			<point x="608" y="478"/>
			<point x="538" y="444" type="curve"/>
			<point x="545" y="438"/>
			<point x="556" y="426"/>
			<point x="560" y="420" type="curve"/>
			<point x="630" y="458"/>
			<point x="701" y="518"/>
			<point x="733" y="590" type="curve"/>
		</contour>
		<contour>
			<point x="679" y="533" type="line"/>
			<point x="741" y="500"/>
			<point x="815" y="451"/>
			<point x="852" y="416" type="curve"/>
			<point x="875" y="438" type="line"/>
			<point x="837" y="473"/>
			<point x="762" y="521"/>
			<point x="701" y="552" type="curve"/>
		</contour>
		<contour>
			<point x="706" y="439" type="line"/>
			<point x="674" y="364"/>
			<point x="606" y="304"/>
			<point x="531" y="266" type="curve"/>
			<point x="538" y="260"/>
			<point x="549" y="248"/>
			<point x="553" y="243" type="curve"/>
			<point x="628" y="285"/>
			<point x="702" y="351"/>
			<point x="736" y="433" type="curve"/>
		</contour>
		<contour>
			<point x="685" y="375" type="line"/>
			<point x="750" y="339"/>
			<point x="826" y="284"/>
			<point x="865" y="247" type="curve"/>
			<point x="888" y="268" type="line"/>
			<point x="849" y="306"/>
			<point x="771" y="359"/>
			<point x="708" y="393" type="curve"/>
		</contour>
	</outline>
</glyph>
<glyph name="c22379" format="1">
	<advance width="1000"/>
	<outline>
		<contour>
			<point x="633" y="627" type="line"/>
			<point x="841" y="627" type="line"/>
			<point x="841" y="521" type="line"/>
			<point x="633" y="521" type="line"/>
		</contour>
		<contour>
			<point x="399" y="627" type="line"/>
			<point x="603" y="627" type="line"/>
			<point x="603" y="521" type="line"/>
			<point x="399" y="521" type="line"/>
		</contour>
		<contour>
			<point x="173" y="627" type="line"/>
			<point x="369" y="627" type="line"/>
			<point x="369" y="521" type="line"/>
			<point x="173" y="521" type="line"/>
		</contour>
		<contour>
			<point x="143" y="657" type="line"/>
			<point x="143" y="491" type="line"/>
			<point x="871" y="491" type="line"/>
			<point x="871" y="657" type="line"/>
		</contour>
		<contour>
			<point x="55" y="761" type="line"/>
			<point x="55" y="731" type="line"/>
			<point x="947" y="731" type="line"/>
			<point x="947" y="761" type="line"/>
		</contour>
		<contour>
			<point x="310" y="839" type="line"/>
			<point x="310" y="681" type="line"/>
			<point x="340" y="681" type="line"/>
			<point x="340" y="839" type="line"/>
		</contour>
		<contour>
			<point x="655" y="839" type="line"/>
			<point x="655" y="681" type="line"/>
			<point x="685" y="681" type="line"/>
			<point x="685" y="839" type="line"/>
		</contour>
		<contour>
			<point x="249" y="432" type="line"/>
			<point x="249" y="402" type="line"/>
			<point x="866" y="402" type="line"/>
			<point x="866" y="432" type="line"/>
		</contour>
		<contour>
			<point x="177" y="315" type="line"/>
			<point x="177" y="117" type="line"/>
			<point x="207" y="117" type="line"/>
			<point x="207" y="315" type="line"/>
		</contour>
		<contour>
			<point x="192" y="315" type="line"/>
			<point x="192" y="285" type="line"/>
			<point x="652" y="285" type="line"/>
			<point x="652" y="188" type="line"/>
			<point x="192" y="188" type="line"/>
			<point x="192" y="158" type="line"/>
			<point x="682" y="158" type="line"/>
			<point x="682" y="315" type="line"/>
		</contour>
		<contour>
			<point x="409" y="408" type="line"/>
			<point x="409" y="34" type="line"/>
			<point x="439" y="34" type="line"/>
			<point x="439" y="408" type="line"/>
		</contour>
		<contour>
			<point x="120" y="27" type="curve"/>
			<point x="124" y="-4" type="line"/>
			<point x="262" y="5"/>
			<point x="469" y="19"/>
			<point x="669" y="33" type="curve"/>
			<point x="670" y="60" type="line"/>
			<point x="464" y="47"/>
			<point x="253" y="34"/>
		</contour>
		<contour>
			<point x="853" y="432" type="line"/>
			<point x="853" y="424" type="line"/>
			<point x="841" y="100"/>
			<point x="827" y="-15"/>
			<point x="804" y="-42" type="curve"/>
			<point x="796" y="-52"/>
			<point x="786" y="-53"/>
			<point x="769" y="-53" type="curve"/>
			<point x="752" y="-53"/>
			<point x="703" y="-53"/>
			<point x="650" y="-48" type="curve"/>
			<point x="656" y="-56"/>
			<point x="658" y="-69"/>
			<point x="659" y="-78" type="curve"/>
			<point x="704" y="-81"/>
			<point x="751" y="-82"/>
			<point x="775" y="-82" type="curve"/>
			<point x="801" y="-81"/>
			<point x="816" y="-76"/>
			<point x="829" y="-60" type="curve"/>
			<point x="858" y="-26"/>
			<point x="870" y="80"/>
			<point x="883" y="411" type="curve"/>
			<point x="883" y="417"/>
			<point x="883" y="432"/>
			<point x="883" y="432" type="curve"/>
		</contour>
		<contour>
			<point x="300" y="509" type="line"/>
			<point x="241" y="413"/>
			<point x="143" y="324"/>
			<point x="46" y="266" type="curve"/>
			<point x="54" y="261"/>
			<point x="67" y="250"/>
			<point x="72" y="245" type="curve"/>
			<point x="166" y="306"/>
			<point x="266" y="399"/>
			<point x="329" y="500" type="curve"/>
		</contour>
		<contour>
			<point x="535" y="120" type="line"/>
			<point x="603" y="83"/>
			<point x="678" y="25"/>
			<point x="713" y="-20" type="curve"/>
			<point x="735" y="1" type="line"/>
			<point x="699" y="46"/>
			<point x="624" y="103"/>
			<point x="556" y="139" type="curve"/>
		</contour>
	</outline>
</glyph>
<glyph name="c22395" format="1">
	<advance width="1000"/>
	<outline>
		<contour>
			<point x="55" y="769" type="line"/>
			<point x="55" y="739" type="line"/>
			<point x="947" y="739" type="line"/>
			<point x="947" y="769" type="line"/>
		</contour>
		<contour>
			<point x="318" y="839" type="line"/>
			<point x="318" y="672" type="line"/>
			<point x="348" y="672" type="line"/>
			<point x="348" y="839" type="line"/>
		</contour>
		<contour>
			<point x="646" y="839" type="line"/>
			<point x="646" y="677" type="line"/>
			<point x="676" y="677" type="line"/>
			<point x="676" y="839" type="line"/>
		</contour>
		<contour>
			<point x="244" y="633" type="line"/>
			<point x="230" y="593"/>
			<point x="208" y="554"/>
			<point x="179" y="522" type="curve"/>
			<point x="187" y="518"/>
			<point x="200" y="511"/>
			<point x="205" y="507" type="curve"/>
			<point x="232" y="538"/>
			<point x="257" y="584"/>
			<point x="273" y="627" type="curve"/>
		</contour>
		<contour>
			<point x="540" y="492" type="line"/>
			<point x="540" y="462" type="line"/>
			<point x="847" y="462" type="line"/>
			<point x="847" y="492" type="line"/>
		</contour>
		<contour>
			<point x="230" y="583" type="line"/>
			<point x="230" y="553" type="line"/>
			<point x="469" y="553" type="line"/>
			<point x="469" y="583" type="line"/>
		</contour>
		<contour>
			<point x="163" y="499" type="line"/>
			<point x="163" y="469" type="line"/>
			<point x="492" y="469" type="line"/>
			<point x="492" y="499" type="line"/>
		</contour>
		<contour>
			<point x="609" y="654" type="line"/>
			<point x="609" y="624" type="line"/>
			<point x="799" y="624" type="line"/>
			<point x="799" y="654" type="line"/>
		</contour>
		<contour>
			<point x="839" y="492" type="line"/>
			<point x="839" y="486" type="line"/>
			<point x="790" y="395"/>
			<point x="645" y="348"/>
			<point x="516" y="330" type="curve"/>
			<point x="523" y="323"/>
			<point x="530" y="311"/>
			<point x="533" y="303" type="curve"/>
			<point x="670" y="326"/>
			<point x="816" y="378"/>
			<point x="871" y="484" type="curve"/>
			<point x="853" y="493" type="line"/>
			<point x="846" y="492" type="line"/>
		</contour>
		<contour>
			<point x="598" y="480" type="curve"/>
			<point x="572" y="470" type="line"/>
			<point x="635" y="383"/>
			<point x="780" y="326"/>
			<point x="937" y="304" type="curve"/>
			<point x="941" y="313"/>
			<point x="949" y="324"/>
			<point x="956" y="331" type="curve"/>
			<point x="800" y="347"/>
			<point x="657" y="399"/>
		</contour>
		<contour>
			<point x="596" y="654" type="line"/>
			<point x="596" y="609" type="line"/>
			<point x="596" y="577"/>
			<point x="580" y="544"/>
			<point x="506" y="516" type="curve"/>
			<point x="512" y="512"/>
			<point x="522" y="500"/>
			<point x="526" y="493" type="curve"/>
			<point x="606" y="526"/>
			<point x="626" y="569"/>
			<point x="626" y="609" type="curve"/>
			<point x="626" y="654" type="line"/>
		</contour>
		<contour>
			<point x="781" y="654" type="line"/>
			<point x="781" y="584" type="line"/>
			<point x="781" y="552"/>
			<point x="783" y="542"/>
			<point x="792" y="534" type="curve"/>
			<point x="801" y="527"/>
			<point x="816" y="525"/>
			<point x="830" y="525" type="curve"/>
			<point x="836" y="525"/>
			<point x="864" y="525"/>
			<point x="871" y="525" type="curve"/>
			<point x="881" y="525"/>
			<point x="895" y="526"/>
			<point x="902" y="528" type="curve"/>
			<point x="911" y="531"/>
			<point x="918" y="535"/>
			<point x="923" y="543" type="curve"/>
			<point x="927" y="550"/>
			<point x="929" y="573"/>
			<point x="930" y="593" type="curve"/>
			<point x="921" y="595"/>
			<point x="912" y="599"/>
			<point x="905" y="604" type="curve"/>
			<point x="904" y="584"/>
			<point x="903" y="569"/>
			<point x="901" y="563" type="curve"/>
			<point x="898" y="557"/>
			<point x="894" y="553"/>
			<point x="890" y="552" type="curve"/>
			<point x="887" y="551"/>
			<point x="876" y="550"/>
			<point x="867" y="550" type="curve"/>
			<point x="857" y="550"/>
			<point x="840" y="550"/>
			<point x="833" y="550" type="curve"/>
			<point x="825" y="550"/>
			<point x="819" y="550"/>
			<point x="816" y="553" type="curve"/>
			<point x="811" y="555"/>
			<point x="811" y="562"/>
			<point x="811" y="576" type="curve"/>
			<point x="811" y="654" type="line"/>
		</contour>
		<contour>
			<point x="314" y="574" type="line"/>
			<point x="314" y="523" type="line"/>
			<point x="314" y="482"/>
			<point x="302" y="419"/>
			<point x="173" y="383" type="curve"/>
			<point x="180" y="378"/>
			<point x="190" y="368"/>
			<point x="194" y="360" type="curve"/>
			<point x="330" y="407"/>
			<point x="344" y="476"/>
			<point x="344" y="523" type="curve"/>
			<point x="344" y="574" type="line"/>
		</contour>
		<contour>
			<point x="306" y="453" type="line"/>
			<point x="358" y="427"/>
			<point x="421" y="389"/>
			<point x="454" y="363" type="curve"/>
			<point x="472" y="387" type="line"/>
			<point x="439" y="413"/>
			<point x="375" y="449"/>
			<point x="324" y="473" type="curve"/>
		</contour>
		<contour>
			<point x="501" y="652" type="line"/>
			<point x="110" y="652" type="line"/>
			<point x="110" y="324" type="line"/>
			<point x="505" y="324" type="line"/>
			<point x="505" y="354" type="line"/>
			<point x="140" y="354" type="line"/>
			<point x="140" y="622" type="line"/>
			<point x="501" y="622" type="line"/>
		</contour>
		<contour>
			<point x="90" y="268" type="line"/>
			<point x="90" y="238" type="line"/>
			<point x="428" y="238" type="line"/>
			<point x="428" y="268" type="line"/>
		</contour>
		<contour>
			<point x="419" y="268" type="line"/>
			<point x="419" y="-36" type="line"/>
			<point x="419" y="-47"/>
			<point x="417" y="-50"/>
			<point x="404" y="-51" type="curve"/>
			<point x="391" y="-52"/>
			<point x="355" y="-52"/>
			<point x="301" y="-50" type="curve"/>
			<point x="307" y="-60"/>
			<point x="312" y="-72"/>
			<point x="314" y="-81" type="curve"/>
			<point x="371" y="-81"/>
			<point x="407" y="-81"/>
			<point x="426" y="-75" type="curve"/>
			<point x="444" y="-68"/>
			<point x="449" y="-58"/>
			<point x="449" y="-36" type="curve"/>
			<point x="449" y="268" type="line"/>
		</contour>
		<contour>
			<point x="293" y="237" type="line"/>
			<point x="240" y="196"/>
			<point x="159" y="155"/>
			<point x="89" y="126" type="curve"/>
			<point x="96" y="121"/>
			<point x="108" y="108"/>
			<point x="112" y="102" type="curve"/>
			<point x="181" y="134"/>
			<point x="265" y="182"/>
			<point x="321" y="226" type="curve"/>
		</contour>
		<contour>
			<point x="387" y="150" type="line"/>
			<point x="314" y="73"/>
			<point x="189" y="4"/>
			<point x="77" y="-39" type="curve"/>
			<point x="85" y="-45"/>
			<point x="96" y="-58"/>
			<point x="100" y="-64" type="curve"/>
			<point x="210" y="-16"/>
			<point x="337" y="57"/>
			<point x="415" y="139" type="curve"/>
		</contour>
		<contour>
			<point x="513" y="268" type="line"/>
			<point x="513" y="238" type="line"/>
			<point x="869" y="238" type="line"/>
			<point x="869" y="268" type="line"/>
		</contour>
		<contour>
			<point x="856" y="268" type="line"/>
			<point x="856" y="-36" type="line"/>
			<point x="856" y="-46"/>
			<point x="854" y="-50"/>
			<point x="841" y="-51" type="curve"/>
			<point x="827" y="-52"/>
			<point x="789" y="-52"/>
			<point x="733" y="-50" type="curve"/>
			<point x="738" y="-60"/>
			<point x="744" y="-72"/>
			<point x="746" y="-81" type="curve"/>
			<point x="806" y="-81"/>
			<point x="843" y="-81"/>
			<point x="862" y="-75" type="curve"/>
			<point x="881" y="-68"/>
			<point x="886" y="-58"/>
			<point x="886" y="-35" type="curve"/>
			<point x="886" y="268" type="line"/>
		</contour>
		<contour>
			<point x="725" y="240" type="line"/>
			<point x="672" y="199"/>
			<point x="591" y="158"/>
			<point x="521" y="129" type="curve"/>
			<point x="528" y="124"/>
			<point x="540" y="111"/>
			<point x="544" y="105" type="curve"/>
			<point x="613" y="137"/>
			<point x="697" y="185"/>
			<point x="753" y="229" type="curve"/>
		</contour>
		<contour>
			<point x="827" y="160" type="line"/>
			<point x="752" y="80"/>
			<point x="625" y="8"/>
			<point x="512" y="-38" type="curve"/>
			<point x="520" y="-43"/>
			<point x="531" y="-56"/>
			<point x="536" y="-62" type="curve"/>
			<point x="646" y="-12"/>
			<point x="775" y="64"/>
			<point x="855" y="149" type="curve"/>
		</contour>
	</outline>
</glyph>
<glyph name="c22450" format="1">
	<advance width="1000"/>
	<outline>
		<contour>
			<point x="196" y="839" type="line"/>
			<point x="196" y="623" type="line"/>
			<point x="226" y="623" type="line"/>
			<point x="226" y="839" type="line"/>
		</contour>
		<contour>
			<point x="91" y="649" type="line"/>
			<point x="91" y="619" type="line"/>
			<point x="320" y="619" type="line"/>
			<point x="320" y="339" type="line"/>
			<point x="91" y="339" type="line"/>
			<point x="91" y="309" type="line"/>
			<point x="350" y="309" type="line"/>
			<point x="350" y="649" type="line"/>
		</contour>
		<contour>
			<point x="76" y="649" type="line"/>
			<point x="76" y="257" type="line"/>
			<point x="106" y="257" type="line"/>
			<point x="106" y="649" type="line"/>
		</contour>
		<contour>
			<point x="196" y="639" type="line"/>
			<point x="196" y="323" type="line"/>
			<point x="196" y="323" type="line"/>
			<point x="196" y="58" type="line"/>
			<point x="226" y="58" type="line"/>
			<point x="226" y="323" type="line"/>
			<point x="226" y="323" type="line"/>
			<point x="226" y="639" type="line"/>
		</contour>
		<contour>
			<point x="36" y="39" type="curve"/>
			<point x="43" y="8" type="line"/>
			<point x="125" y="24"/>
			<point x="234" y="46"/>
			<point x="342" y="67" type="curve"/>
			<point x="340" y="96" type="line"/>
			<point x="225" y="74"/>
			<point x="113" y="52"/>
		</contour>
		<contour>
			<point x="274" y="221" type="line"/>
			<point x="309" y="151"/>
			<point x="340" y="59"/>
			<point x="349" y="-2" type="curve"/>
			<point x="378" y="7" type="line"/>
			<point x="368" y="67"/>
			<point x="337" y="159"/>
			<point x="300" y="229" type="curve"/>
		</contour>
		<contour>
			<point x="393" y="145" type="line"/>
			<point x="393" y="115" type="line"/>
			<point x="961" y="115" type="line"/>
			<point x="961" y="145" type="line"/>
		</contour>
		<contour>
			<point x="422" y="333" type="line"/>
			<point x="422" y="303" type="line"/>
			<point x="940" y="303" type="line"/>
			<point x="940" y="333" type="line"/>
		</contour>
		<contour>
			<point x="441" y="796" type="line"/>
			<point x="441" y="766" type="line"/>
			<point x="601" y="766" type="line"/>
			<point x="601" y="650" type="line"/>
			<point x="441" y="650" type="line"/>
			<point x="441" y="620" type="line"/>
			<point x="631" y="620" type="line"/>
			<point x="631" y="796" type="line"/>
		</contour>
		<contour>
			<point x="552" y="447" type="line"/>
			<point x="552" y="127" type="line"/>
			<point x="582" y="127" type="line"/>
			<point x="582" y="447" type="line"/>
		</contour>
		<contour>
			<point x="775" y="447" type="line"/>
			<point x="775" y="127" type="line"/>
			<point x="805" y="127" type="line"/>
			<point x="805" y="447" type="line"/>
		</contour>
		<contour>
			<point x="425" y="796" type="line"/>
			<point x="425" y="522" type="line"/>
			<point x="425" y="478"/>
			<point x="439" y="470"/>
			<point x="491" y="470" type="curve"/>
			<point x="501" y="470"/>
			<point x="598" y="470"/>
			<point x="609" y="470" type="curve"/>
			<point x="650" y="470"/>
			<point x="660" y="488"/>
			<point x="663" y="562" type="curve"/>
			<point x="654" y="564"/>
			<point x="643" y="568"/>
			<point x="635" y="574" type="curve"/>
			<point x="633" y="507"/>
			<point x="628" y="498"/>
			<point x="605" y="498" type="curve"/>
			<point x="585" y="498"/>
			<point x="505" y="498"/>
			<point x="491" y="498" type="curve"/>
			<point x="460" y="498"/>
			<point x="455" y="502"/>
			<point x="455" y="521" type="curve"/>
			<point x="455" y="796" type="line"/>
		</contour>
		<contour>
			<point x="725" y="796" type="line"/>
			<point x="725" y="766" type="line"/>
			<point x="891" y="766" type="line"/>
			<point x="891" y="650" type="line"/>
			<point x="725" y="650" type="line"/>
			<point x="725" y="620" type="line"/>
			<point x="921" y="620" type="line"/>
			<point x="921" y="796" type="line"/>
		</contour>
		<contour>
			<point x="709" y="796" type="line"/>
			<point x="709" y="522" type="line"/>
			<point x="709" y="478"/>
			<point x="724" y="470"/>
			<point x="777" y="470" type="curve"/>
			<point x="788" y="470"/>
			<point x="891" y="470"/>
			<point x="902" y="470" type="curve"/>
			<point x="945" y="470"/>
			<point x="955" y="488"/>
			<point x="958" y="562" type="curve"/>
			<point x="949" y="564"/>
			<point x="938" y="568"/>
			<point x="930" y="574" type="curve"/>
			<point x="928" y="507"/>
			<point x="923" y="498"/>
			<point x="899" y="498" type="curve"/>
			<point x="878" y="498"/>
			<point x="792" y="498"/>
			<point x="777" y="498" type="curve"/>
			<point x="744" y="498"/>
			<point x="739" y="502"/>
			<point x="739" y="522" type="curve"/>
			<point x="739" y="796" type="line"/>
		</contour>
		<contour>
			<point x="741" y="69" type="line"/>
			<point x="814" y="25"/>
			<point x="903" y="-39"/>
			<point x="948" y="-80" type="curve"/>
			<point x="972" y="-60" type="line"/>
			<point x="925" y="-19"/>
			<point x="836" y="43"/>
			<point x="764" y="86" type="curve"/>
		</contour>
		<contour>
			<point x="590" y="87" type="line"/>
			<point x="547" y="37"/>
			<point x="454" y="-21"/>
			<point x="375" y="-57" type="curve"/>
			<point x="382" y="-63"/>
			<point x="391" y="-75"/>
			<point x="396" y="-82" type="curve"/>
			<point x="474" y="-45"/>
			<point x="566" y="14"/>
			<point x="624" y="71" type="curve"/>
		</contour>
	</outline>
</glyph>
<glyph name="c2645" format="1">
	<advance width="1000"/>
	<outline>
		<contour>
			<point x="175" y="159" type="line"/>
			<point x="175" y="129" type="line"/>
			<point x="837" y="129" type="line"/>
			<point x="837" y="159" type="line"/>
		</contour>
		<contour>
			<point x="192" y="319" type="line"/>
			<point x="192" y="289" type="line"/>
			<point x="877" y="289" type="line"/>
			<point x="877" y="319" type="line"/>
		</contour>
		<contour>
			<point x="61" y="-24" type="line"/>
			<point x="61" y="-54" type="line"/>
			<point x="939" y="-54" type="line"/>
			<point x="939" y="-24" type="line"/>
		</contour>
		<contour>
			<point x="483" y="422" type="line"/>
			<point x="483" y="-42" type="line"/>
			<point x="513" y="-42" type="line"/>
			<point x="513" y="422" type="line"/>
		</contour>
		<contour>
			<point x="204" y="606" type="line"/>
			<point x="805" y="606" type="line"/>
			<point x="805" y="478" type="line"/>
			<point x="204" y="478" type="line"/>
		</contour>
		<contour>
			<point x="204" y="762" type="line"/>
			<point x="805" y="762" type="line"/>
			<point x="805" y="636" type="line"/>
			<point x="204" y="636" type="line"/>
		</contour>
		<contour>
			<point x="174" y="792" type="line"/>
			<point x="174" y="448" type="line"/>
			<point x="835" y="448" type="line"/>
			<point x="835" y="792" type="line"/>
		</contour>
		<contour>
			<point x="254" y="436" type="line"/>
			<point x="208" y="339"/>
			<point x="134" y="246"/>
			<point x="54" y="184" type="curve"/>
			<point x="63" y="179"/>
			<point x="76" y="169"/>
			<point x="81" y="164" type="curve"/>
			<point x="157" y="229"/>
			<point x="234" y="326"/>
			<point x="284" y="428" type="curve"/>
		</contour>
	</outline>
</glyph>
<glyph name="c2663" format="1">
	<advance width="1000"/>
	<outline>
		<contour>
			<point x="478" y="-20" type="line"/>
			<point x="478" y="-50" type="line"/>
			<point x="965" y="-50" type="line"/>
			<point x="965" y="-20" type="line"/>
		</contour>
		<contour>
			<point x="534" y="165" type="line"/>
			<point x="534" y="135" type="line"/>
			<point x="917" y="135" type="line"/>
			<point x="917" y="165" type="line"/>
		</contour>
		<contour>
			<point x="705" y="440" type="line"/>
			<point x="705" y="-42" type="line"/>
			<point x="735" y="-42" type="line"/>
			<point x="735" y="440" type="line"/>
		</contour>
		<contour>
			<point x="551" y="615" type="line"/>
			<point x="876" y="615" type="line"/>
			<point x="876" y="492" type="line"/>
			<point x="551" y="492" type="line"/>
		</contour>
		<contour>
			<point x="551" y="766" type="line"/>
			<point x="876" y="766" type="line"/>
			<point x="876" y="645" type="line"/>
			<point x="551" y="645" type="line"/>
		</contour>
		<contour>
			<point x="521" y="796" type="line"/>
			<point x="521" y="462" type="line"/>
			<point x="906" y="462" type="line"/>
			<point x="906" y="796" type="line"/>
		</contour>
		<contour>
			<point x="575" y="437" type="line"/>
			<point x="550" y="350"/>
			<point x="510" y="265"/>
			<point x="459" y="206" type="curve"/>
			<point x="467" y="202"/>
			<point x="481" y="193"/>
			<point x="486" y="189" type="curve"/>
			<point x="534" y="249"/>
			<point x="578" y="339"/>
			<point x="605" y="431" type="curve"/>
		</contour>
		<contour>
			<point x="551" y="324" type="line"/>
			<point x="536" y="294" type="line"/>
			<point x="934" y="294" type="line"/>
			<point x="934" y="324" type="line"/>
		</contour>
		<contour>
			<point x="65" y="597" type="line"/>
			<point x="65" y="-77" type="line"/>
			<point x="95" y="-77" type="line"/>
			<point x="95" y="567" type="line"/>
			<point x="420" y="567" type="line"/>
			<point x="420" y="-63" type="line"/>
			<point x="450" y="-63" type="line"/>
			<point x="450" y="597" type="line"/>
		</contour>
		<contour>
			<point x="81" y="204" type="line"/>
			<point x="81" y="174" type="line"/>
			<point x="428" y="174" type="line"/>
			<point x="428" y="204" type="line"/>
		</contour>
		<contour>
			<point x="81" y="32" type="line"/>
			<point x="81" y="2" type="line"/>
			<point x="428" y="2" type="line"/>
			<point x="428" y="32" type="line"/>
		</contour>
		<contour>
			<point x="42" y="791" type="line"/>
			<point x="42" y="761" type="line"/>
			<point x="466" y="761" type="line"/>
			<point x="466" y="791" type="line"/>
		</contour>
		<contour>
			<point x="185" y="780" type="line"/>
			<point x="185" y="582" type="line"/>
			<point x="215" y="582" type="line"/>
			<point x="215" y="780" type="line"/>
		</contour>
		<contour>
			<point x="294" y="780" type="line"/>
			<point x="294" y="582" type="line"/>
			<point x="324" y="582" type="line"/>
			<point x="324" y="780" type="line"/>
		</contour>
		<contour>
			<point x="185" y="583" type="line"/>
			<point x="185" y="489" type="line"/>
			<point x="185" y="429"/>
			<point x="170" y="355"/>
			<point x="93" y="298" type="curve"/>
			<point x="100" y="294"/>
			<point x="111" y="285"/>
			<point x="116" y="278" type="curve"/>
			<point x="196" y="339"/>
			<point x="215" y="423"/>
			<point x="215" y="489" type="curve"/>
			<point x="215" y="583" type="line"/>
		</contour>
		<contour>
			<point x="294" y="583" type="line"/>
			<point x="294" y="383" type="line"/>
			<point x="294" y="344"/>
			<point x="306" y="339"/>
			<point x="343" y="339" type="curve"/>
			<point x="350" y="339"/>
			<point x="403" y="339"/>
			<point x="410" y="339" type="curve"/>
			<point x="435" y="339"/>
			<point x="447" y="347"/>
			<point x="449" y="360" type="curve"/>
			<point x="440" y="363"/>
			<point x="428" y="365"/>
			<point x="421" y="371" type="curve"/>
			<point x="419" y="369"/>
			<point x="417" y="369"/>
			<point x="404" y="369" type="curve"/>
			<point x="393" y="369"/>
			<point x="351" y="369"/>
			<point x="343" y="369" type="curve"/>
			<point x="326" y="369"/>
			<point x="324" y="371"/>
			<point x="324" y="383" type="curve"/>
			<point x="324" y="583" type="line"/>
		</contour>
	</outline>
</glyph>
<glyph name="c3555" format="1">
	<advance width="1000"/>
	<outline>
		<contour>
			<point x="250" y="839" type="line"/>
			<point x="217" y="771"/>
			<point x="156" y="685"/>
			<point x="72" y="620" type="curve"/>
			<point x="80" y="617"/>
			<point x="90" y="609"/>
			<point x="96" y="603" type="curve"/>
			<point x="183" y="672"/>
			<point x="244" y="760"/>
			<point x="282" y="835" type="curve"/>
		</contour>
		<contour>
			<point x="212" y="743" type="line"/>
			<point x="188" y="713" type="line"/>
			<point x="901" y="713" type="line"/>
			<point x="901" y="743" type="line"/>
		</contour>
		<contour>
			<point x="214" y="282" type="line"/>
			<point x="190" y="252" type="line"/>
			<point x="413" y="252" type="line"/>
			<point x="413" y="282" type="line"/>
		</contour>
		<contour>
			<point x="50" y="578" type="line"/>
			<point x="50" y="548" type="line"/>
			<point x="951" y="548" type="line"/>
			<point x="951" y="578" type="line"/>
		</contour>
		<contour>
			<point x="74" y="413" type="line"/>
			<point x="74" y="383" type="line"/>
			<point x="930" y="383" type="line"/>
			<point x="930" y="413" type="line"/>
		</contour>
		<contour>
			<point x="198" y="735" type="line"/>
			<point x="198" y="397" type="line"/>
			<point x="228" y="397" type="line"/>
			<point x="228" y="735" type="line"/>
		</contour>
		<contour>
			<point x="380" y="735" type="line"/>
			<point x="380" y="397" type="line"/>
			<point x="410" y="397" type="line"/>
			<point x="410" y="735" type="line"/>
		</contour>
		<contour>
			<point x="572" y="735" type="line"/>
			<point x="572" y="397" type="line"/>
			<point x="602" y="397" type="line"/>
			<point x="602" y="735" type="line"/>
		</contour>
		<contour>
			<point x="761" y="735" type="line"/>
			<point x="761" y="397" type="line"/>
			<point x="791" y="397" type="line"/>
			<point x="791" y="735" type="line"/>
		</contour>
		<contour>
			<point x="255" y="376" type="line"/>
			<point x="210" y="277"/>
			<point x="126" y="192"/>
			<point x="35" y="137" type="curve"/>
			<point x="43" y="132"/>
			<point x="56" y="121"/>
			<point x="61" y="117" type="curve"/>
			<point x="149" y="175"/>
			<point x="236" y="264"/>
			<point x="284" y="369" type="curve"/>
		</contour>
		<contour>
			<point x="407" y="282" type="line"/>
			<point x="407" y="274" type="line"/>
			<point x="353" y="98"/>
			<point x="219" y="-5"/>
			<point x="62" y="-57" type="curve"/>
			<point x="70" y="-63"/>
			<point x="80" y="-74"/>
			<point x="85" y="-81" type="curve"/>
			<point x="244" y="-25"/>
			<point x="381" y="81"/>
			<point x="441" y="274" type="curve"/>
			<point x="422" y="284" type="line"/>
			<point x="415" y="282" type="line"/>
		</contour>
		<contour>
			<point x="136" y="195" type="line"/>
			<point x="194" y="158"/>
			<point x="263" y="104"/>
			<point x="297" y="67" type="curve"/>
			<point x="318" y="89" type="line"/>
			<point x="284" y="126"/>
			<point x="215" y="178"/>
			<point x="158" y="214" type="curve"/>
		</contour>
		<contour>
			<point x="481" y="280" type="line"/>
			<point x="481" y="250" type="line"/>
			<point x="927" y="250" type="line"/>
			<point x="927" y="280" type="line"/>
		</contour>
		<contour>
			<point x="433" y="92" type="line"/>
			<point x="433" y="62" type="line"/>
			<point x="960" y="62" type="line"/>
			<point x="960" y="92" type="line"/>
		</contour>
		<contour>
			<point x="720" y="372" type="line"/>
			<point x="720" y="-83" type="line"/>
			<point x="750" y="-83" type="line"/>
			<point x="750" y="372" type="line"/>
		</contour>
		<contour>
			<point x="546" y="272" type="line"/>
			<point x="546" y="74" type="line"/>
			<point x="576" y="74" type="line"/>
			<point x="576" y="272" type="line"/>
		</contour>
	</outline>
</glyph>
<glyph name="c5640" format="1">
	<advance width="1000"/>
	<outline>
		<contour>
			<point x="59" y="808" type="line"/>
			<point x="233" y="649"/>
			<point x="254" y="475"/>
			<point x="254" y="293" type="curve"/>
			<point x="254" y="150"/>
			<point x="244" y="8"/>
			<point x="214" y="-31" type="curve"/>
			<point x="205" y="-42"/>
			<point x="195" y="-46"/>
			<point x="180" y="-48" type="curve"/>
			<point x="155" y="-51"/>
			<point x="112" y="-51"/>
			<point x="65" y="-48" type="curve"/>
			<point x="71" y="-56"/>
			<point x="76" y="-69"/>
			<point x="77" y="-79" type="curve"/>
			<point x="115" y="-81"/>
			<point x="154" y="-81"/>
			<point x="184" y="-78" type="curve"/>
			<point x="209" y="-75"/>
			<point x="225" y="-66"/>
			<point x="237" y="-51" type="curve"/>
			<point x="274" y="-1"/>
			<point x="284" y="137"/>
			<point x="284" y="293" type="curve"/>
			<point x="284" y="482"/>
			<point x="262" y="663"/>
			<point x="81" y="826" type="curve"/>
		</contour>
		<contour>
			<point x="248" y="470" type="line"/>
			<point x="203" y="370"/>
			<point x="111" y="259"/>
			<point x="30" y="205" type="curve"/>
			<point x="38" y="199"/>
			<point x="47" y="187"/>
			<point x="52" y="179" type="curve"/>
			<point x="134" y="241"/>
			<point x="225" y="354"/>
			<point x="272" y="456" type="curve"/>
		</contour>
		<contour>
			<point x="308" y="838" type="line"/>
			<point x="252" y="740"/>
			<point x="146" y="624"/>
			<point x="38" y="543" type="curve"/>
			<point x="45" y="538"/>
			<point x="54" y="531"/>
			<point x="59" y="525" type="curve"/>
			<point x="168" y="610"/>
			<point x="273" y="719"/>
			<point x="334" y="823" type="curve"/>
		</contour>
		<contour>
			<point x="432" y="611" type="line"/>
			<point x="871" y="611" type="line"/>
			<point x="871" y="482" type="line"/>
			<point x="432" y="482" type="line"/>
		</contour>
		<contour>
			<point x="432" y="768" type="line"/>
			<point x="871" y="768" type="line"/>
			<point x="871" y="641" type="line"/>
			<point x="432" y="641" type="line"/>
		</contour>
		<contour>
			<point x="402" y="798" type="line"/>
			<point x="402" y="452" type="line"/>
			<point x="901" y="452" type="line"/>
			<point x="901" y="798" type="line"/>
		</contour>
		<contour>
			<point x="460" y="427" type="line"/>
			<point x="428" y="336"/>
			<point x="372" y="252"/>
			<point x="305" y="196" type="curve"/>
			<point x="313" y="191"/>
			<point x="326" y="181"/>
			<point x="331" y="176" type="curve"/>
			<point x="396" y="235"/>
			<point x="456" y="324"/>
			<point x="490" y="420" type="curve"/>
		</contour>
		<contour>
			<point x="427" y="319" type="line"/>
			<point x="412" y="289" type="line"/>
			<point x="936" y="289" type="line"/>
			<point x="936" y="319" type="line"/>
		</contour>
		<contour>
			<point x="400" y="161" type="line"/>
			<point x="400" y="131" type="line"/>
			<point x="909" y="131" type="line"/>
			<point x="909" y="161" type="line"/>
		</contour>
		<contour>
			<point x="321" y="-20" type="line"/>
			<point x="321" y="-50" type="line"/>
			<point x="956" y="-50" type="line"/>
			<point x="956" y="-20" type="line"/>
		</contour>
		<contour>
			<point x="633" y="424" type="line"/>
			<point x="633" y="-35" type="line"/>
			<point x="663" y="-35" type="line"/>
			<point x="663" y="424" type="line"/>
		</contour>
	</outline>
</glyph>
<glyph name="c6260" format="1">
	<advance width="1000"/>
	<outline>
		<contour>
			<point x="126" y="800" type="line"/>
			<point x="126" y="770" type="line"/>
			<point x="334" y="770" type="line"/>
			<point x="334" y="800" type="line"/>
		</contour>
		<contour>
			<point x="126" y="554" type="line"/>
			<point x="126" y="524" type="line"/>
			<point x="334" y="524" type="line"/>
			<point x="334" y="554" type="line"/>
		</contour>
		<contour>
			<point x="388" y="-21" type="line"/>
			<point x="388" y="-51" type="line"/>
			<point x="960" y="-51" type="line"/>
			<point x="960" y="-21" type="line"/>
		</contour>
		<contour>
			<point x="443" y="162" type="line"/>
			<point x="443" y="131" type="line"/>
			<point x="907" y="131" type="line"/>
			<point x="907" y="162" type="line"/>
		</contour>
		<contour>
			<point x="123" y="302" type="line"/>
			<point x="123" y="272" type="line"/>
			<point x="335" y="272" type="line"/>
			<point x="335" y="302" type="line"/>
		</contour>
		<contour>
			<point x="111" y="800" type="line"/>
			<point x="111" y="438" type="line"/>
			<point x="111" y="287"/>
			<point x="105" y="83"/>
			<point x="30" y="-64" type="curve"/>
			<point x="38" y="-67"/>
			<point x="50" y="-75"/>
			<point x="56" y="-81" type="curve"/>
			<point x="131" y="69"/>
			<point x="141" y="284"/>
			<point x="141" y="438" type="curve"/>
			<point x="141" y="800" type="line"/>
		</contour>
		<contour>
			<point x="319" y="800" type="line"/>
			<point x="319" y="-31" type="line"/>
			<point x="319" y="-46"/>
			<point x="313" y="-50"/>
			<point x="298" y="-51" type="curve"/>
			<point x="285" y="-52"/>
			<point x="238" y="-52"/>
			<point x="180" y="-51" type="curve"/>
			<point x="185" y="-60"/>
			<point x="191" y="-73"/>
			<point x="193" y="-80" type="curve"/>
			<point x="263" y="-81"/>
			<point x="300" y="-80"/>
			<point x="320" y="-75" type="curve"/>
			<point x="340" y="-69"/>
			<point x="349" y="-57"/>
			<point x="349" y="-30" type="curve"/>
			<point x="349" y="800" type="line"/>
		</contour>
		<contour>
			<point x="472" y="610" type="line"/>
			<point x="871" y="610" type="line"/>
			<point x="871" y="482" type="line"/>
			<point x="472" y="482" type="line"/>
		</contour>
		<contour>
			<point x="472" y="766" type="line"/>
			<point x="871" y="766" type="line"/>
			<point x="871" y="640" type="line"/>
			<point x="472" y="640" type="line"/>
		</contour>
		<contour>
			<point x="442" y="796" type="line"/>
			<point x="442" y="452" type="line"/>
			<point x="901" y="452" type="line"/>
			<point x="901" y="796" type="line"/>
		</contour>
		<contour>
			<point x="657" y="425" type="line"/>
			<point x="657" y="-34" type="line"/>
			<point x="687" y="-34" type="line"/>
			<point x="687" y="425" type="line"/>
		</contour>
		<contour>
			<point x="498" y="427" type="line"/>
			<point x="468" y="340"/>
			<point x="419" y="257"/>
			<point x="361" y="200" type="curve"/>
			<point x="369" y="195"/>
			<point x="382" y="185"/>
			<point x="387" y="181" type="curve"/>
			<point x="443" y="240"/>
			<point x="496" y="329"/>
			<point x="528" y="420" type="curve"/>
		</contour>
		<contour>
			<point x="465" y="320" type="line"/>
			<point x="450" y="290" type="line"/>
			<point x="929" y="290" type="line"/>
			<point x="929" y="320" type="line"/>
		</contour>
	</outline>
</glyph>
<glyph name="c6385" format="1">
	<advance width="1000"/>
	<outline>
		<contour>
			<point x="50" y="534" type="line"/>
			<point x="50" y="504" type="line"/>
			<point x="820" y="504" type="line"/>
			<point x="820" y="534" type="line"/>
		</contour>
		<contour>
			<point x="819" y="534" type="line"/>
			<point x="819" y="504" type="line"/>
			<point x="959" y="504" type="line"/>
			<point x="959" y="534" type="line"/>
		</contour>
		<contour>
			<point x="483" y="291" type="line"/>
			<point x="483" y="-78" type="line"/>
			<point x="513" y="-78" type="line"/>
			<point x="513" y="291" type="line"/>
		</contour>
		<contour>
			<point x="200" y="190" type="line"/>
			<point x="200" y="-45" type="line"/>
			<point x="230" y="-45" type="line"/>
			<point x="230" y="160" type="line"/>
			<point x="799" y="160" type="line"/>
			<point x="799" y="190" type="line"/>
		</contour>
		<contour>
			<point x="780" y="190" type="line"/>
			<point x="780" y="-1" type="line"/>
			<point x="780" y="-12"/>
			<point x="777" y="-15"/>
			<point x="763" y="-16" type="curve"/>
			<point x="748" y="-17"/>
			<point x="703" y="-18"/>
			<point x="639" y="-16" type="curve"/>
			<point x="644" y="-25"/>
			<point x="649" y="-35"/>
			<point x="651" y="-44" type="curve"/>
			<point x="724" y="-44"/>
			<point x="764" y="-44"/>
			<point x="785" y="-38" type="curve"/>
			<point x="805" y="-32"/>
			<point x="810" y="-22"/>
			<point x="810" y="-1" type="curve"/>
			<point x="810" y="190" type="line"/>
		</contour>
		<contour>
			<point x="77" y="302" type="line"/>
			<point x="77" y="151" type="line"/>
			<point x="107" y="151" type="line"/>
			<point x="107" y="272" type="line"/>
			<point x="893" y="272" type="line"/>
			<point x="893" y="151" type="line"/>
			<point x="923" y="151" type="line"/>
			<point x="923" y="302" type="line"/>
		</contour>
		<contour>
			<point x="167" y="652" type="line"/>
			<point x="167" y="622" type="line"/>
			<point x="801" y="622" type="line"/>
			<point x="801" y="410" type="line"/>
			<point x="161" y="410" type="line"/>
			<point x="161" y="380" type="line"/>
			<point x="831" y="380" type="line"/>
			<point x="831" y="652" type="line"/>
		</contour>
		<contour>
			<point x="64" y="769" type="line"/>
			<point x="64" y="739" type="line"/>
			<point x="942" y="739" type="line"/>
			<point x="942" y="769" type="line"/>
		</contour>
		<contour>
			<point x="310" y="839" type="line"/>
			<point x="310" y="677" type="line"/>
			<point x="340" y="677" type="line"/>
			<point x="340" y="839" type="line"/>
		</contour>
		<contour>
			<point x="655" y="839" type="line"/>
			<point x="655" y="677" type="line"/>
			<point x="685" y="677" type="line"/>
			<point x="685" y="839" type="line"/>
		</contour>
	</outline>
</glyph>
<glyph name="c6440" format="1">
	<advance width="1000"/>
	<outline>
		<contour>
			<point x="51" y="761" type="line"/>
			<point x="51" y="731" type="line"/>
			<point x="952" y="731" type="line"/>
			<point x="952" y="761" type="line"/>
		</contour>
		<contour>
			<point x="58" y="562" type="line"/>
			<point x="58" y="532" type="line"/>
			<point x="815" y="532" type="line"/>
			<point x="815" y="562" type="line"/>
		</contour>
		<contour>
			<point x="809" y="562" type="line"/>
			<point x="809" y="532" type="line"/>
			<point x="945" y="532" type="line"/>
			<point x="945" y="562" type="line"/>
		</contour>
		<contour>
			<point x="50" y="153" type="line"/>
			<point x="50" y="123" type="line"/>
			<point x="951" y="123" type="line"/>
			<point x="951" y="153" type="line"/>
		</contour>
		<contour>
			<point x="77" y="372" type="line"/>
			<point x="77" y="342" type="line"/>
			<point x="442" y="342" type="line"/>
			<point x="442" y="372" type="line"/>
		</contour>
		<contour>
			<point x="310" y="839" type="line"/>
			<point x="310" y="677" type="line"/>
			<point x="340" y="677" type="line"/>
			<point x="340" y="839" type="line"/>
		</contour>
		<contour>
			<point x="238" y="364" type="line"/>
			<point x="238" y="233" type="line"/>
			<point x="268" y="233" type="line"/>
			<point x="268" y="364" type="line"/>
		</contour>
		<contour>
			<point x="655" y="839" type="line"/>
			<point x="655" y="677" type="line"/>
			<point x="685" y="677" type="line"/>
			<point x="685" y="839" type="line"/>
		</contour>
		<contour>
			<point x="551" y="346" type="line"/>
			<point x="855" y="346" type="line"/>
			<point x="855" y="252" type="line"/>
			<point x="551" y="252" type="line"/>
		</contour>
		<contour>
			<point x="521" y="376" type="line"/>
			<point x="521" y="222" type="line"/>
			<point x="885" y="222" type="line"/>
			<point x="885" y="376" type="line"/>
		</contour>
		<contour>
			<point x="160" y="656" type="line"/>
			<point x="160" y="626" type="line"/>
			<point x="797" y="626" type="line"/>
			<point x="797" y="463" type="line"/>
			<point x="160" y="463" type="line"/>
			<point x="160" y="433" type="line"/>
			<point x="827" y="433" type="line"/>
			<point x="827" y="656" type="line"/>
		</contour>
		<contour>
			<point x="706" y="228" type="line"/>
			<point x="706" y="-32" type="line"/>
			<point x="706" y="-46"/>
			<point x="702" y="-51"/>
			<point x="684" y="-52" type="curve"/>
			<point x="665" y="-53"/>
			<point x="606" y="-54"/>
			<point x="523" y="-52" type="curve"/>
			<point x="528" y="-61"/>
			<point x="534" y="-71"/>
			<point x="536" y="-80" type="curve"/>
			<point x="629" y="-80"/>
			<point x="681" y="-81"/>
			<point x="705" y="-75" type="curve"/>
			<point x="729" y="-69"/>
			<point x="736" y="-58"/>
			<point x="736" y="-32" type="curve"/>
			<point x="736" y="228" type="line"/>
		</contour>
		<contour>
			<point x="54" y="235" type="curve"/>
			<point x="57" y="203" type="line"/>
			<point x="161" y="211"/>
			<point x="311" y="223"/>
			<point x="460" y="235" type="curve"/>
			<point x="461" y="264" type="line"/>
			<point x="307" y="252"/>
			<point x="154" y="241"/>
		</contour>
		<contour>
			<point x="219" y="85" type="line"/>
			<point x="288" y="58"/>
			<point x="368" y="12"/>
			<point x="409" y="-23" type="curve"/>
			<point x="428" y="1" type="line"/>
			<point x="387" y="36"/>
			<point x="306" y="80"/>
			<point x="238" y="106" type="curve"/>
		</contour>
	</outline>
</glyph>
<glyph name="c6447" format="1">
	<advance width="1000"/>
	<outline>
		<contour>
			<point x="51" y="761" type="line"/>
			<point x="51" y="731" type="line"/>
			<point x="952" y="731" type="line"/>
			<point x="952" y="761" type="line"/>
		</contour>
		<contour>
			<point x="70" y="329" type="line"/>
			<point x="70" y="299" type="line"/>
			<point x="935" y="299" type="line"/>
			<point x="935" y="329" type="line"/>
		</contour>
		<contour>
			<point x="70" y="658" type="line"/>
			<point x="70" y="628" type="line"/>
			<point x="935" y="628" type="line"/>
			<point x="935" y="658" type="line"/>
		</contour>
		<contour>
			<point x="51" y="-10" type="line"/>
			<point x="51" y="-40" type="line"/>
			<point x="952" y="-40" type="line"/>
			<point x="952" y="-10" type="line"/>
		</contour>
		<contour>
			<point x="310" y="839" type="line"/>
			<point x="310" y="677" type="line"/>
			<point x="340" y="677" type="line"/>
			<point x="340" y="839" type="line"/>
		</contour>
		<contour>
			<point x="655" y="839" type="line"/>
			<point x="655" y="677" type="line"/>
			<point x="685" y="677" type="line"/>
			<point x="685" y="839" type="line"/>
		</contour>
		<contour>
			<point x="483" y="569" type="line"/>
			<point x="483" y="389" type="line"/>
			<point x="513" y="389" type="line"/>
			<point x="513" y="569" type="line"/>
		</contour>
		<contour>
			<point x="201" y="464" type="line"/>
			<point x="804" y="464" type="line"/>
			<point x="804" y="406" type="line"/>
			<point x="201" y="406" type="line"/>
		</contour>
		<contour>
			<point x="201" y="550" type="line"/>
			<point x="804" y="550" type="line"/>
			<point x="804" y="494" type="line"/>
			<point x="201" y="494" type="line"/>
		</contour>
		<contour>
			<point x="171" y="580" type="line"/>
			<point x="171" y="376" type="line"/>
			<point x="834" y="376" type="line"/>
			<point x="834" y="580" type="line"/>
		</contour>
		<contour>
			<point x="483" y="242" type="line"/>
			<point x="483" y="53" type="line"/>
			<point x="513" y="53" type="line"/>
			<point x="513" y="242" type="line"/>
		</contour>
		<contour>
			<point x="177" y="133" type="line"/>
			<point x="824" y="133" type="line"/>
			<point x="824" y="71" type="line"/>
			<point x="177" y="71" type="line"/>
		</contour>
		<contour>
			<point x="177" y="223" type="line"/>
			<point x="824" y="223" type="line"/>
			<point x="824" y="163" type="line"/>
			<point x="177" y="163" type="line"/>
		</contour>
		<contour>
			<point x="147" y="253" type="line"/>
			<point x="147" y="41" type="line"/>
			<point x="854" y="41" type="line"/>
			<point x="854" y="253" type="line"/>
		</contour>
	</outline>
</glyph>
<glyph name="c6449" format="1">
	<advance width="1000"/>
	<outline>
		<contour>
			<point x="53" y="761" type="line"/>
			<point x="53" y="731" type="line"/>
			<point x="949" y="731" type="line"/>
			<point x="949" y="761" type="line"/>
		</contour>
		<contour>
			<point x="147" y="300" type="line"/>
			<point x="147" y="270" type="line"/>
			<point x="850" y="270" type="line"/>
			<point x="850" y="300" type="line"/>
		</contour>
		<contour>
			<point x="318" y="839" type="line"/>
			<point x="318" y="668" type="line"/>
			<point x="348" y="668" type="line"/>
			<point x="348" y="839" type="line"/>
		</contour>
		<contour>
			<point x="647" y="839" type="line"/>
			<point x="647" y="668" type="line"/>
			<point x="677" y="668" type="line"/>
			<point x="677" y="839" type="line"/>
		</contour>
		<contour>
			<point x="631" y="620" type="line"/>
			<point x="835" y="620" type="line"/>
			<point x="835" y="499" type="line"/>
			<point x="631" y="499" type="line"/>
		</contour>
		<contour>
			<point x="401" y="620" type="line"/>
			<point x="601" y="620" type="line"/>
			<point x="601" y="499" type="line"/>
			<point x="401" y="499" type="line"/>
		</contour>
		<contour>
			<point x="179" y="620" type="line"/>
			<point x="371" y="620" type="line"/>
			<point x="371" y="499" type="line"/>
			<point x="179" y="499" type="line"/>
		</contour>
		<contour>
			<point x="149" y="650" type="line"/>
			<point x="149" y="469" type="line"/>
			<point x="865" y="469" type="line"/>
			<point x="865" y="650" type="line"/>
		</contour>
		<contour>
			<point x="77" y="410" type="line"/>
			<point x="77" y="280" type="line"/>
			<point x="107" y="280" type="line"/>
			<point x="107" y="380" type="line"/>
			<point x="893" y="380" type="line"/>
			<point x="893" y="280" type="line"/>
			<point x="923" y="280" type="line"/>
			<point x="923" y="410" type="line"/>
		</contour>
		<contour>
			<point x="313" y="287" type="line"/>
			<point x="263" y="225"/>
			<point x="170" y="152"/>
			<point x="52" y="98" type="curve"/>
			<point x="60" y="94"/>
			<point x="70" y="85"/>
			<point x="76" y="78" type="curve"/>
			<point x="197" y="136"/>
			<point x="289" y="211"/>
			<point x="348" y="281" type="curve"/>
		</contour>
		<contour>
			<point x="472" y="203" type="line"/>
			<point x="472" y="196" type="line"/>
			<point x="407" y="57"/>
			<point x="231" y="-24"/>
			<point x="69" y="-55" type="curve"/>
			<point x="75" y="-61"/>
			<point x="83" y="-73"/>
			<point x="86" y="-81" type="curve"/>
			<point x="254" y="-44"/>
			<point x="432" y="40"/>
			<point x="504" y="194" type="curve"/>
			<point x="485" y="205" type="line"/>
			<point x="479" y="203" type="line"/>
		</contour>
		<contour>
			<point x="146" y="131" type="line"/>
			<point x="211" y="106"/>
			<point x="286" y="60"/>
			<point x="324" y="25" type="curve"/>
			<point x="350" y="44" type="line"/>
			<point x="311" y="78"/>
			<point x="235" y="123"/>
			<point x="171" y="148" type="curve"/>
		</contour>
		<contour>
			<point x="243" y="203" type="line"/>
			<point x="213" y="173" type="line"/>
			<point x="482" y="173" type="line"/>
			<point x="482" y="203" type="line"/>
		</contour>
		<contour>
			<point x="556" y="277" type="line"/>
			<point x="556" y="1" type="line"/>
			<point x="556" y="-51"/>
			<point x="577" y="-60"/>
			<point x="654" y="-60" type="curve"/>
			<point x="670" y="-60"/>
			<point x="852" y="-60"/>
			<point x="870" y="-60" type="curve"/>
			<point x="932" y="-60"/>
			<point x="944" y="-39"/>
			<point x="948" y="49" type="curve"/>
			<point x="939" y="51"/>
			<point x="927" y="56"/>
			<point x="919" y="62" type="curve"/>
			<point x="915" y="-19"/>
			<point x="909" y="-30"/>
			<point x="868" y="-30" type="curve"/>
			<point x="831" y="-30"/>
			<point x="677" y="-30"/>
			<point x="651" y="-30" type="curve"/>
			<point x="595" y="-30"/>
			<point x="586" y="-24"/>
			<point x="586" y="1" type="curve"/>
			<point x="586" y="277" type="line"/>
		</contour>
		<contour>
			<point x="864" y="215" type="line"/>
			<point x="798" y="183"/>
			<point x="672" y="150"/>
			<point x="565" y="127" type="curve"/>
			<point x="570" y="120"/>
			<point x="575" y="110"/>
			<point x="577" y="103" type="curve"/>
			<point x="687" y="125"/>
			<point x="813" y="157"/>
			<point x="894" y="193" type="curve"/>
		</contour>
	</outline>
</glyph>
<glyph name="c6550" format="1">
	<advance width="1000"/>
	<outline>
		<contour>
			<point x="219" y="518" type="line"/>
			<point x="786" y="518" type="line"/>
			<point x="786" y="434" type="line"/>
			<point x="219" y="434" type="line"/>
		</contour>
		<contour>
			<point x="219" y="630" type="line"/>
			<point x="786" y="630" type="line"/>
			<point x="786" y="548" type="line"/>
			<point x="219" y="548" type="line"/>
		</contour>
		<contour>
			<point x="189" y="660" type="line"/>
			<point x="189" y="404" type="line"/>
			<point x="816" y="404" type="line"/>
			<point x="816" y="660" type="line"/>
		</contour>
		<contour>
			<point x="48" y="337" type="line"/>
			<point x="48" y="307" type="line"/>
			<point x="953" y="307" type="line"/>
			<point x="953" y="337" type="line"/>
		</contour>
		<contour>
			<point x="387" y="420" type="line"/>
			<point x="337" y="321"/>
			<point x="215" y="207"/>
			<point x="34" y="138" type="curve"/>
			<point x="42" y="132"/>
			<point x="51" y="123"/>
			<point x="55" y="116" type="curve"/>
			<point x="242" y="190"/>
			<point x="363" y="305"/>
			<point x="421" y="414" type="curve"/>
		</contour>
		<contour>
			<point x="683" y="329" type="curve"/>
			<point x="659" y="317" type="line"/>
			<point x="722" y="241"/>
			<point x="846" y="163"/>
			<point x="945" y="127" type="curve"/>
			<point x="950" y="135"/>
			<point x="959" y="145"/>
			<point x="966" y="151" type="curve"/>
			<point x="866" y="183"/>
			<point x="744" y="256"/>
		</contour>
		<contour>
			<point x="56" y="761" type="line"/>
			<point x="56" y="731" type="line"/>
			<point x="948" y="731" type="line"/>
			<point x="948" y="761" type="line"/>
		</contour>
		<contour>
			<point x="310" y="839" type="line"/>
			<point x="310" y="677" type="line"/>
			<point x="340" y="677" type="line"/>
			<point x="340" y="839" type="line"/>
		</contour>
		<contour>
			<point x="655" y="839" type="line"/>
			<point x="655" y="677" type="line"/>
			<point x="685" y="677" type="line"/>
			<point x="685" y="839" type="line"/>
		</contour>
		<contour>
			<point x="482" y="314" type="line"/>
			<point x="482" y="-33" type="line"/>
			<point x="512" y="-33" type="line"/>
			<point x="512" y="314" type="line"/>
		</contour>
		<contour>
			<point x="244" y="197" type="line"/>
			<point x="758" y="197" type="line"/>
			<point x="758" y="106" type="line"/>
			<point x="244" y="106" type="line"/>
		</contour>
		<contour>
			<point x="214" y="227" type="line"/>
			<point x="214" y="76" type="line"/>
			<point x="788" y="76" type="line"/>
			<point x="788" y="227" type="line"/>
		</contour>
		<contour>
			<point x="130" y="-22" type="curve"/>
			<point x="133" y="-54" type="line"/>
			<point x="309" y="-52"/>
			<point x="580" y="-46"/>
			<point x="837" y="-40" type="curve"/>
			<point x="839" y="-13" type="line"/>
			<point x="576" y="-18"/>
			<point x="300" y="-22"/>
		</contour>
		<contour>
			<point x="700" y="42" type="line"/>
			<point x="770" y="3"/>
			<point x="858" y="-58"/>
			<point x="903" y="-98" type="curve"/>
			<point x="925" y="-76" type="line"/>
			<point x="880" y="-38"/>
			<point x="791" y="22"/>
			<point x="721" y="61" type="curve"/>
		</contour>
	</outline>
</glyph>
<glyph name="c6821" format="1">
	<advance width="1000"/>
	<outline>
		<contour>
			<point x="193" y="296" type="line"/>
			<point x="818" y="296" type="line"/>
			<point x="818" y="202" type="line"/>
			<point x="193" y="202" type="line"/>
		</contour>
		<contour>
			<point x="163" y="326" type="line"/>
			<point x="163" y="172" type="line"/>
			<point x="848" y="172" type="line"/>
			<point x="848" y="326" type="line"/>
		</contour>
		<contour>
			<point x="483" y="194" type="line"/>
			<point x="483" y="-38" type="line"/>
			<point x="513" y="-43" type="line"/>
			<point x="513" y="194" type="line"/>
		</contour>
		<contour>
			<point x="502" y="102" type="line"/>
			<point x="502" y="72" type="line"/>
			<point x="899" y="72" type="line"/>
			<point x="899" y="102" type="line"/>
		</contour>
		<contour>
			<point x="139" y="749" type="line"/>
			<point x="139" y="719" type="line"/>
			<point x="950" y="719" type="line"/>
			<point x="950" y="749" type="line"/>
		</contour>
		<contour>
			<point x="127" y="749" type="line"/>
			<point x="127" y="606" type="line"/>
			<point x="127" y="523"/>
			<point x="114" y="416"/>
			<point x="39" y="334" type="curve"/>
			<point x="46" y="330"/>
			<point x="57" y="321"/>
			<point x="62" y="315" type="curve"/>
			<point x="141" y="400"/>
			<point x="157" y="518"/>
			<point x="157" y="606" type="curve"/>
			<point x="157" y="749" type="line"/>
		</contour>
		<contour>
			<point x="356" y="724" type="line"/>
			<point x="356" y="557" type="line"/>
			<point x="386" y="557" type="line"/>
			<point x="386" y="724" type="line"/>
		</contour>
		<contour>
			<point x="372" y="665" type="line"/>
			<point x="372" y="635" type="line"/>
			<point x="557" y="635" type="line"/>
			<point x="557" y="665" type="line"/>
		</contour>
		<contour>
			<point x="192" y="569" type="line"/>
			<point x="192" y="539" type="line"/>
			<point x="584" y="539" type="line"/>
			<point x="584" y="569" type="line"/>
		</contour>
		<contour>
			<point x="366" y="559" type="line"/>
			<point x="366" y="399" type="line"/>
			<point x="366" y="391"/>
			<point x="364" y="388"/>
			<point x="353" y="387" type="curve"/>
			<point x="342" y="386"/>
			<point x="312" y="386"/>
			<point x="265" y="387" type="curve"/>
			<point x="270" y="378"/>
			<point x="276" y="368"/>
			<point x="278" y="359" type="curve"/>
			<point x="328" y="359"/>
			<point x="358" y="359"/>
			<point x="375" y="365" type="curve"/>
			<point x="392" y="370"/>
			<point x="396" y="379"/>
			<point x="396" y="400" type="curve"/>
			<point x="396" y="559" type="line"/>
		</contour>
		<contour>
			<point x="264" y="509" type="line"/>
			<point x="239" y="467"/>
			<point x="199" y="428"/>
			<point x="155" y="398" type="curve"/>
			<point x="163" y="394"/>
			<point x="176" y="384"/>
			<point x="181" y="380" type="curve"/>
			<point x="222" y="410"/>
			<point x="267" y="457"/>
			<point x="293" y="502" type="curve"/>
		</contour>
		<contour>
			<point x="446" y="495" type="line"/>
			<point x="481" y="468"/>
			<point x="519" y="429"/>
			<point x="537" y="401" type="curve"/>
			<point x="561" y="419" type="line"/>
			<point x="543" y="446"/>
			<point x="504" y="485"/>
			<point x="470" y="510" type="curve"/>
		</contour>
		<contour>
			<point x="585" y="840" type="line"/>
			<point x="599" y="554"/>
			<point x="730" y="345"/>
			<point x="890" y="345" type="curve"/>
			<point x="940" y="346"/>
			<point x="958" y="380"/>
			<point x="964" y="488" type="curve"/>
			<point x="955" y="491"/>
			<point x="944" y="496"/>
			<point x="935" y="503" type="curve"/>
			<point x="931" y="411"/>
			<point x="922" y="377"/>
			<point x="891" y="376" type="curve"/>
			<point x="754" y="374"/>
			<point x="628" y="559"/>
			<point x="616" y="840" type="curve"/>
		</contour>
		<contour>
			<point x="823" y="671" type="line"/>
			<point x="762" y="542"/>
			<point x="651" y="434"/>
			<point x="530" y="365" type="curve"/>
			<point x="537" y="360"/>
			<point x="549" y="349"/>
			<point x="554" y="343" type="curve"/>
			<point x="673" y="417"/>
			<point x="786" y="527"/>
			<point x="852" y="663" type="curve"/>
		</contour>
		<contour>
			<point x="696" y="816" type="line"/>
			<point x="748" y="801"/>
			<point x="811" y="775"/>
			<point x="845" y="754" type="curve"/>
			<point x="860" y="781" type="line"/>
			<point x="826" y="801"/>
			<point x="762" y="825"/>
			<point x="711" y="839" type="curve"/>
		</contour>
		<contour>
			<point x="258" y="76" type="curve"/>
			<point x="233" y="60" type="line"/>
			<point x="322" y="-40"/>
			<point x="468" y="-58"/>
			<point x="701" y="-58" type="curve"/>
			<point x="886" y="-58" type="line"/>
			<point x="950" y="-58" type="line"/>
			<point x="952" y="-50"/>
			<point x="958" y="-36"/>
			<point x="964" y="-28" type="curve"/>
			<point x="929" y="-28"/>
			<point x="722" y="-28"/>
			<point x="700" y="-28" type="curve"/>
			<point x="486" y="-28"/>
			<point x="336" y="-13"/>
		</contour>
		<contour>
			<point x="263" y="138" type="line"/>
			<point x="233" y="41"/>
			<point x="141" y="-19"/>
			<point x="34" y="-55" type="curve"/>
			<point x="42" y="-61"/>
			<point x="54" y="-72"/>
			<point x="58" y="-78" type="curve"/>
			<point x="163" y="-37"/>
			<point x="262" y="28"/>
			<point x="294" y="134" type="curve"/>
		</contour>
	</outline>
</glyph>
<glyph name="c7701" format="1">
	<advance width="1000"/>
	<outline>
		<contour>
			<point x="50" y="310" type="line"/>
			<point x="50" y="280" type="line"/>
			<point x="951" y="280" type="line"/>
			<point x="951" y="310" type="line"/>
		</contour>
		<contour>
			<point x="148" y="425" type="line"/>
			<point x="148" y="395" type="line"/>
			<point x="729" y="395" type="line"/>
			<point x="729" y="425" type="line"/>
		</contour>
		<contour>
			<point x="270" y="89" type="line"/>
			<point x="270" y="59" type="line"/>
			<point x="820" y="59" type="line"/>
			<point x="820" y="89" type="line"/>
		</contour>
		<contour>
			<point x="270" y="-17" type="line"/>
			<point x="270" y="-47" type="line"/>
			<point x="820" y="-47" type="line"/>
			<point x="820" y="-17" type="line"/>
		</contour>
		<contour>
			<point x="442" y="503" type="line"/>
			<point x="442" y="291" type="line"/>
			<point x="472" y="291" type="line"/>
			<point x="472" y="503" type="line"/>
		</contour>
		<contour>
			<point x="256" y="194" type="line"/>
			<point x="256" y="-80" type="line"/>
			<point x="286" y="-80" type="line"/>
			<point x="286" y="164" type="line"/>
			<point x="799" y="164" type="line"/>
			<point x="799" y="-80" type="line"/>
			<point x="829" y="-80" type="line"/>
			<point x="829" y="194" type="line"/>
		</contour>
		<contour>
			<point x="834" y="468" type="line"/>
			<point x="645" y="315"/>
			<point x="327" y="198"/>
			<point x="37" y="135" type="curve"/>
			<point x="45" y="128"/>
			<point x="55" y="113"/>
			<point x="59" y="106" type="curve"/>
			<point x="343" y="176"/>
			<point x="660" y="289"/>
			<point x="859" y="450" type="curve"/>
		</contour>
		<contour>
			<point x="587" y="241" type="line"/>
			<point x="631" y="229"/>
			<point x="683" y="206"/>
			<point x="712" y="186" type="curve"/>
			<point x="727" y="211" type="line"/>
			<point x="699" y="230"/>
			<point x="646" y="252"/>
			<point x="603" y="263" type="curve"/>
		</contour>
		<contour>
			<point x="633" y="629" type="line"/>
			<point x="841" y="629" type="line"/>
			<point x="841" y="520" type="line"/>
			<point x="633" y="520" type="line"/>
		</contour>
		<contour>
			<point x="399" y="629" type="line"/>
			<point x="603" y="629" type="line"/>
			<point x="603" y="520" type="line"/>
			<point x="399" y="520" type="line"/>
		</contour>
		<contour>
			<point x="173" y="629" type="line"/>
			<point x="369" y="629" type="line"/>
			<point x="369" y="520" type="line"/>
			<point x="173" y="520" type="line"/>
		</contour>
		<contour>
			<point x="143" y="659" type="line"/>
			<point x="143" y="490" type="line"/>
			<point x="871" y="490" type="line"/>
			<point x="871" y="659" type="line"/>
		</contour>
		<contour>
			<point x="55" y="761" type="line"/>
			<point x="55" y="731" type="line"/>
			<point x="947" y="731" type="line"/>
			<point x="947" y="761" type="line"/>
		</contour>
		<contour>
			<point x="312" y="837" type="line"/>
			<point x="312" y="679" type="line"/>
			<point x="342" y="679" type="line"/>
			<point x="342" y="837" type="line"/>
		</contour>
		<contour>
			<point x="655" y="839" type="line"/>
			<point x="655" y="681" type="line"/>
			<point x="685" y="681" type="line"/>
			<point x="685" y="839" type="line"/>
		</contour>
	</outline>
</glyph>
<glyph name="c7734" format="1">
	<advance width="1000"/>
	<outline>
		<contour>
			<point x="602" y="75" type="line"/>
			<point x="724" y="26"/>
			<point x="847" y="-33"/>
			<point x="924" y="-81" type="curve"/>
			<point x="945" y="-56" type="line"/>
			<point x="866" y="-8"/>
			<point x="741" y="51"/>
			<point x="619" y="97" type="curve"/>
		</contour>
		<contour>
			<point x="50" y="158" type="line"/>
			<point x="50" y="128" type="line"/>
			<point x="951" y="128" type="line"/>
			<point x="951" y="158" type="line"/>
		</contour>
		<contour>
			<point x="103" y="342" type="line"/>
			<point x="103" y="312" type="line"/>
			<point x="905" y="312" type="line"/>
			<point x="905" y="342" type="line"/>
		</contour>
		<contour>
			<point x="302" y="458" type="line"/>
			<point x="302" y="134" type="line"/>
			<point x="332" y="134" type="line"/>
			<point x="332" y="458" type="line"/>
		</contour>
		<contour>
			<point x="676" y="461" type="line"/>
			<point x="676" y="132" type="line"/>
			<point x="706" y="132" type="line"/>
			<point x="706" y="461" type="line"/>
		</contour>
		<contour>
			<point x="115" y="795" type="line"/>
			<point x="115" y="534" type="line"/>
			<point x="115" y="484"/>
			<point x="134" y="475"/>
			<point x="204" y="475" type="curve"/>
			<point x="219" y="475"/>
			<point x="379" y="475"/>
			<point x="395" y="475" type="curve"/>
			<point x="450" y="475"/>
			<point x="462" y="495"/>
			<point x="466" y="574" type="curve"/>
			<point x="456" y="576"/>
			<point x="444" y="580"/>
			<point x="436" y="586" type="curve"/>
			<point x="433" y="515"/>
			<point x="427" y="505"/>
			<point x="392" y="505" type="curve"/>
			<point x="360" y="505"/>
			<point x="225" y="505"/>
			<point x="202" y="505" type="curve"/>
			<point x="153" y="505"/>
			<point x="145" y="511"/>
			<point x="145" y="533" type="curve"/>
			<point x="145" y="795" type="line"/>
		</contour>
		<contour>
			<point x="367" y="96" type="line"/>
			<point x="299" y="41"/>
			<point x="162" y="-20"/>
			<point x="51" y="-56" type="curve"/>
			<point x="58" y="-62"/>
			<point x="68" y="-74"/>
			<point x="72" y="-80" type="curve"/>
			<point x="183" y="-43"/>
			<point x="317" y="19"/>
			<point x="401" y="80" type="curve"/>
		</contour>
		<contour>
			<point x="130" y="795" type="line"/>
			<point x="130" y="765" type="line"/>
			<point x="419" y="765" type="line"/>
			<point x="419" y="652" type="line"/>
			<point x="130" y="652" type="line"/>
			<point x="130" y="622" type="line"/>
			<point x="449" y="622" type="line"/>
			<point x="449" y="795" type="line"/>
		</contour>
		<contour>
			<point x="550" y="795" type="line"/>
			<point x="550" y="534" type="line"/>
			<point x="550" y="484"/>
			<point x="570" y="475"/>
			<point x="642" y="475" type="curve"/>
			<point x="658" y="475"/>
			<point x="826" y="475"/>
			<point x="843" y="475" type="curve"/>
			<point x="900" y="475"/>
			<point x="911" y="495"/>
			<point x="916" y="574" type="curve"/>
			<point x="906" y="576"/>
			<point x="894" y="580"/>
			<point x="886" y="586" type="curve"/>
			<point x="883" y="515"/>
			<point x="877" y="505"/>
			<point x="840" y="505" type="curve"/>
			<point x="807" y="505"/>
			<point x="664" y="505"/>
			<point x="640" y="505" type="curve"/>
			<point x="588" y="505"/>
			<point x="580" y="511"/>
			<point x="580" y="534" type="curve"/>
			<point x="580" y="795" type="line"/>
		</contour>
		<contour>
			<point x="565" y="795" type="line"/>
			<point x="565" y="765" type="line"/>
			<point x="854" y="765" type="line"/>
			<point x="854" y="652" type="line"/>
			<point x="565" y="652" type="line"/>
			<point x="565" y="622" type="line"/>
			<point x="884" y="622" type="line"/>
			<point x="884" y="795" type="line"/>
		</contour>
	</outline>
</glyph>
<glyph name="c8611" format="1">
	<advance width="1000"/>
	<outline>
		<contour>
			<point x="194" y="451" type="line"/>
			<point x="816" y="451" type="line"/>
			<point x="816" y="303" type="line"/>
			<point x="194" y="303" type="line"/>
		</contour>
		<contour>
			<point x="164" y="481" type="line"/>
			<point x="164" y="273" type="line"/>
			<point x="846" y="273" type="line"/>
			<point x="846" y="481" type="line"/>
		</contour>
		<contour>
			<point x="58" y="768" type="line"/>
			<point x="58" y="738" type="line"/>
			<point x="941" y="738" type="line"/>
			<point x="941" y="768" type="line"/>
		</contour>
		<contour>
			<point x="60" y="564" type="line"/>
			<point x="60" y="534" type="line"/>
			<point x="943" y="534" type="line"/>
			<point x="943" y="564" type="line"/>
		</contour>
		<contour>
			<point x="98" y="218" type="line"/>
			<point x="98" y="188" type="line"/>
			<point x="909" y="188" type="line"/>
			<point x="909" y="218" type="line"/>
		</contour>
		<contour>
			<point x="55" y="120" type="line"/>
			<point x="55" y="90" type="line"/>
			<point x="947" y="90" type="line"/>
			<point x="947" y="120" type="line"/>
		</contour>
		<contour>
			<point x="310" y="839" type="line"/>
			<point x="310" y="677" type="line"/>
			<point x="340" y="677" type="line"/>
			<point x="340" y="839" type="line"/>
		</contour>
		<contour>
			<point x="655" y="839" type="line"/>
			<point x="655" y="686" type="line"/>
			<point x="685" y="686" type="line"/>
			<point x="685" y="839" type="line"/>
		</contour>
		<contour>
			<point x="481" y="646" type="line"/>
			<point x="481" y="101" type="line"/>
			<point x="511" y="101" type="line"/>
			<point x="511" y="646" type="line"/>
		</contour>
		<contour>
			<point x="200" y="70" type="line"/>
			<point x="178" y="13"/>
			<point x="133" y="-36"/>
			<point x="60" y="-60" type="curve"/>
			<point x="81" y="-82" type="line"/>
			<point x="160" y="-53"/>
			<point x="203" y="1"/>
			<point x="226" y="60" type="curve"/>
		</contour>
		<contour>
			<point x="348" y="59" type="line"/>
			<point x="365" y="17"/>
			<point x="379" y="-38"/>
			<point x="382" y="-72" type="curve"/>
			<point x="413" y="-65" type="line"/>
			<point x="410" y="-32"/>
			<point x="395" y="22"/>
			<point x="378" y="63" type="curve"/>
		</contour>
		<contour>
			<point x="538" y="59" type="line"/>
			<point x="570" y="18"/>
			<point x="602" y="-38"/>
			<point x="614" y="-75" type="curve"/>
			<point x="641" y="-61" type="line"/>
			<point x="629" y="-25"/>
			<point x="596" y="30"/>
			<point x="564" y="70" type="curve"/>
		</contour>
		<contour>
			<point x="737" y="57" type="line"/>
			<point x="802" y="17"/>
			<point x="879" y="-42"/>
			<point x="917" y="-82" type="curve"/>
			<point x="939" y="-62" type="line"/>
			<point x="900" y="-22"/>
			<point x="823" y="35"/>
			<point x="759" y="74" type="curve"/>
		</contour>
		<contour>
			<point x="815" y="685" type="line"/>
			<point x="665" y="663"/>
			<point x="374" y="650"/>
			<point x="139" y="648" type="curve"/>
			<point x="142" y="640"/>
			<point x="146" y="629"/>
			<point x="147" y="621" type="curve"/>
			<point x="385" y="622"/>
			<point x="673" y="636"/>
			<point x="845" y="660" type="curve"/>
		</contour>
		<contour>
			<point x="291" y="423" type="line"/>
			<point x="318" y="390"/>
			<point x="347" y="345"/>
			<point x="360" y="316" type="curve"/>
			<point x="387" y="329" type="line"/>
			<point x="375" y="358"/>
			<point x="345" y="402"/>
			<point x="317" y="434" type="curve"/>
		</contour>
		<contour>
			<point x="672" y="439" type="line"/>
			<point x="654" y="406"/>
			<point x="620" y="354"/>
			<point x="595" y="322" type="curve"/>
			<point x="619" y="311" type="line"/>
			<point x="645" y="341"/>
			<point x="676" y="386"/>
			<point x="701" y="426" type="curve"/>
		</contour>
	</outline>
</glyph>
